<svg height="82" viewBox="0 0 62 82" width="62" xmlns="http://www.w3.org/2000/svg"><path d="m61.0743677 48.3511173c-.9300665-12.0810504-6.6096726-19.6526701-11.6103303-26.332963-4.6224305-6.1895973-8.6248168-11.5251357-8.6248168-19.40732233-.0032501-.63703766-.3607395-1.21912501-.9268985-1.50923586-.5661589-.29011086-1.2465408-.23984895-1.7640939.13031905-7.7259624 5.63639859-13.3491376 13.69845504-15.9754425 22.90430504-1.2445828 5.6176962-1.8313826 11.3615528-1.7485251 17.1153389-6.9413964-1.4689811-8.5132088-11.7580608-8.5287099-11.8760762-.0818472-.5357804-.4126779-1.0008489-.8915046-1.2532412s-1.04881329-.2621499-1.53596899-.0262942c-.36582616.1739174-8.93483898 4.4907966-9.43087445 21.7396793-.03720266.5652317-.03720266 1.1397803-.03720266 1.7081177.10414729 16.8532362 13.806316 30.4419379 30.6301905 30.3765433.0227084.0011684.0454965.0011684.0682049 0h.0217016c16.7888266.0157025 30.4362354-13.5585361 30.540284-30.3765433 0-.8416362-.1736124-3.1988386-.1736124-3.1988386m-30.4565781 31.1281152c-6.1045936-.0239664-11.0377925-4.9936191-11.0275439-11.1089762 0-.2080797 0-.4192652 0-.6770357-.0054003-1.901802.3930093-3.7830159 1.1688389-5.5187729 1.0137455 2.4768001 3.4015293 4.1117463 6.0733343 4.1584901.9874495.027861 1.8111601-.7500655 1.8415317-1.7391743-.0849085-2.6544724.1513952-5.3094775.7037503-7.907032.7039123-2.4810554 1.9780139-4.7625134 3.7202661-6.6616588.8715412 2.3933296 2.1513059 4.6168869 3.7822705 6.5715945 2.6724205 3.0369236 4.3213171 6.8403956 4.712337 10.8698396.0217015.3105669.0465033.5962884.0465033.9317006-.0050562 6.1020383-4.9300107 11.0536868-11.0212882 11.0810251" fill="#ee7d76"/></svg>