<svg xmlns="http://www.w3.org/2000/svg" width="275" height="82" viewBox="0 0 275 82">
    <g fill="none">
        <g fill="#FFF">
            <path d="M4.981 5.798c-.924.98-2.413 1.165-3.548.44C.298 5.515-.163 4.085.333 2.832.83 1.578 2.145.855 3.467 1.108c1.322.253 2.279 1.41 2.28 2.759.022.722-.256 1.42-.766 1.931zm.31 26.374H.79v-21.57H5.29v21.57zM16.284 12.842l.286-.286c.261-.234.539-.45.83-.646.43-.303.88-.575 1.35-.813.581-.28 1.19-.5 1.816-.659.724-.201 1.471-.306 2.223-.31 2.375-.092 4.676.842 6.318 2.565 1.68 1.89 2.55 4.365 2.421 6.891v12.572H27.04V19.6c.045-1.435-.488-2.827-1.479-3.864-.952-1.008-2.285-1.565-3.67-1.534-1.537-.071-3.029.533-4.083 1.656-1.08 1.295-1.626 2.955-1.523 4.64v11.674h-4.482v-21.57h4.492l-.01 2.24zM48.592 14.64h-4.96v17.532h-4.459V14.64H36.02v-4.037h3.153v-3.6c0-4.488 2.088-6.733 6.263-6.733.536 0 1.071.037 1.603.109.386.042.767.123 1.137.242l.416.087v4.06c-.719-.289-1.483-.444-2.257-.46-.721-.022-1.419.255-1.928.767-.515.525-.792 1.24-.766 1.975v3.553h4.96l-.01 4.037zM57.995 32.172L53.534 32.172 53.534.708 57.995.708zM79.982 29.932l-.286.286c-.259.234-.533.451-.821.65-.426.305-.876.576-1.346.81-.583.277-1.193.494-1.82.649-.73.188-1.48.284-2.235.286-2.374.09-4.674-.84-6.318-2.56-1.679-1.884-2.548-4.356-2.418-6.879V10.603h4.489v12.571c-.046 1.435.487 2.828 1.479 3.864.947 1.016 2.28 1.58 3.667 1.553 1.538.069 3.03-.537 4.086-1.659 1.085-1.3 1.63-2.967 1.523-4.658V10.603h4.489v21.569h-4.49v-2.24zM94.131 22.957c.25 1.545 1.046 2.947 2.245 3.95 1.238 1.102 2.845 1.697 4.501 1.668 1.225.008 2.432-.288 3.516-.86.867-.405 1.65-.97 2.31-1.665l.678-.832 2.915 2.916c-.087.115-.224.283-.407.494-.363.385-.754.744-1.168 1.075-.596.502-1.235.95-1.91 1.338-.83.454-1.706.814-2.614 1.075-1.075.33-2.195.497-3.32.497-2.986.027-5.847-1.194-7.896-3.37-2.161-2.124-3.36-5.042-3.317-8.075.02-6.07 4.924-10.987 10.984-11.012 2.817-.072 5.54 1.018 7.532 3.013 1.992 1.996 3.08 4.724 3.008 7.546l-.238 2.239-16.819.003zm2.421-7.537c-1.115.975-1.894 2.28-2.223 3.726h12.46c-.216-1.445-.938-2.766-2.037-3.726-2.4-1.913-5.8-1.913-8.2 0zM120.62 12.842l.285-.286c.262-.234.541-.45.833-.646.429-.303.878-.575 1.346-.813.583-.28 1.193-.5 1.82-.659.724-.201 1.471-.306 2.223-.31 2.375-.09 4.676.843 6.318 2.565 1.678 1.89 2.547 4.365 2.418 6.891v12.572h-4.495V19.6c.046-1.434-.486-2.827-1.476-3.864-.952-1.008-2.286-1.565-3.67-1.534-1.538-.071-3.029.533-4.084 1.656-1.08 1.294-1.624 2.955-1.519 4.64v11.674h-4.495v-21.57h4.495v2.24zM144.15 13.5c2.048-2.161 4.9-3.377 7.875-3.357 2.917.045 5.707 1.206 7.797 3.246l.93 1.03-2.915 2.923c-.199-.307-.422-.598-.666-.87-.582-.553-1.238-1.022-1.95-1.394-2.603-1.524-5.915-1.021-7.95 1.208-2.674 2.873-2.674 7.33 0 10.202 2.037 2.224 5.34 2.733 7.95 1.227.818-.42 1.553-.983 2.17-1.665l.679-.832 2.914 2.916c-.087.115-.22.283-.394.494-.355.384-.736.743-1.14 1.075-.574.498-1.189.946-1.839 1.338-.79.452-1.628.812-2.499 1.075-1 .327-2.047.495-3.1.497-6.145-.11-11.1-5.072-11.214-11.227-.014-2.98 1.198-5.832 3.352-7.886zM168.605 22.957c.246 1.545 1.044 2.949 2.244 3.95 1.239 1.102 2.845 1.698 4.502 1.668 1.223.009 2.43-.287 3.512-.86.868-.406 1.652-.97 2.313-1.665l.676-.832 2.917 2.916c-.09.115-.223.283-.406.494-.366.384-.758.743-1.172 1.075-1.31 1.131-2.855 1.955-4.523 2.413-1.075.33-2.193.497-3.317.497-2.986.028-5.848-1.194-7.897-3.37-2.16-2.124-3.36-5.042-3.317-8.075.02-6.069 4.923-10.985 10.981-11.012 2.816-.07 5.538 1.02 7.53 3.015 1.992 1.996 3.08 4.723 3.01 7.544l-.238 2.239-16.815.003zm2.418-7.537c-1.115.976-1.893 2.28-2.223 3.726h12.463c-.217-1.444-.94-2.765-2.037-3.726-2.4-1.914-5.802-1.914-8.203 0z" transform="translate(88.646 28.872)"/>
        </g>
        <path fill="#EE7D76" d="M61.074 48.351c-.93-12.08-6.61-19.653-11.61-26.333-4.622-6.19-8.625-11.525-8.625-19.407-.003-.637-.36-1.22-.927-1.51-.566-.29-1.246-.24-1.764.13-7.726 5.637-13.349 13.7-15.975 22.905-1.245 5.618-1.832 11.362-1.749 17.116-6.941-1.47-8.513-11.759-8.528-11.877-.082-.535-.413-1-.892-1.253-.479-.252-1.049-.262-1.536-.026-.366.174-8.935 4.49-9.43 21.74C0 50.4 0 50.976 0 51.544.104 68.397 13.806 81.986 30.63 81.92h.09c16.789.016 30.436-13.558 30.54-30.376 0-.842-.173-3.2-.173-3.2M30.63 79.474c-6.104-.024-11.038-4.994-11.027-11.109v-.677c-.006-1.902.393-3.783 1.168-5.519 1.014 2.477 3.402 4.112 6.074 4.159.987.028 1.811-.75 1.841-1.74-.085-2.654.152-5.309.704-7.906.704-2.482 1.978-4.763 3.72-6.662.872 2.393 2.152 4.617 3.783 6.571 2.672 3.037 4.321 6.84 4.712 10.87.022.31.046.597.046.932-.005 6.102-4.93 11.054-11.02 11.081"/>
    </g>
</svg>
