<svg xmlns="http://www.w3.org/2000/svg" viewBox="0 0 831.76 107.87"><defs><style>.cls-1{fill:#fff;}</style></defs><g id="Layer_2" data-name="Layer 2"><g id="Layer_1-2" data-name="Layer 1"><circle class="cls-1" cx="53.94" cy="53.94" r="53.94"/><path class="cls-1" d="M166.15,97.41H139.08l13-86.94h52.66l-3.73,24.34H175.47l-1.12,7.95h25.59L196.21,67.1H170.62Z"/><path class="cls-1" d="M236.7,10.47,227.51,72h29.31L253,97.41H196.46l13-86.94Z"/><path class="cls-1" d="M349.35,51.2a44.83,44.83,0,0,1-4,18.88,49.3,49.3,0,0,1-10.81,15.28A50.9,50.9,0,0,1,318.8,95.55a48,48,0,0,1-18.63,3.72,45,45,0,0,1-17-3.23,44,44,0,0,1-14-8.94,41.86,41.86,0,0,1-9.5-13.48,40.63,40.63,0,0,1-3.48-16.83,44.72,44.72,0,0,1,4-18.88,49.79,49.79,0,0,1,26.51-25.58A47.93,47.93,0,0,1,305.38,8.6a44.25,44.25,0,0,1,17,3.29,45.08,45.08,0,0,1,14,9,42.11,42.11,0,0,1,9.51,13.47A40.85,40.85,0,0,1,349.35,51.2ZM301.29,72.94a18.8,18.8,0,0,0,7.82-1.68,20.75,20.75,0,0,0,6.46-4.47,21.39,21.39,0,0,0,4.35-6.52,19.55,19.55,0,0,0,1.61-7.82,17.92,17.92,0,0,0-1.3-6.9A16.77,16.77,0,0,0,316.56,40a17.31,17.31,0,0,0-12.42-5.1,18.67,18.67,0,0,0-7.88,1.68,20.67,20.67,0,0,0-6.4,4.53,21.43,21.43,0,0,0-4.29,6.59A20.2,20.2,0,0,0,284,55.55a17.88,17.88,0,0,0,1.31,6.89,16.18,16.18,0,0,0,3.6,5.47,17.34,17.34,0,0,0,5.46,3.66A17.07,17.07,0,0,0,301.29,72.94Z"/><path class="cls-1" d="M363,97.41,346,10.47h27.45l7.08,47.94,20.86-47.94h24l6.33,47.94,21.61-47.94h28.44L438.66,97.41H414.44L408.1,48.47l-21,48.94Z"/><path class="cls-1" d="M525.6,95.67A34.63,34.63,0,0,1,517,98.53a43.16,43.16,0,0,1-7.39.74A42.39,42.39,0,0,1,492.81,96a38.86,38.86,0,0,1-13-8.94,40.7,40.7,0,0,1-8.51-13.48,45.29,45.29,0,0,1-3-16.7,48.37,48.37,0,0,1,3.6-18.57,47.83,47.83,0,0,1,10-15.34A48.37,48.37,0,0,1,497,12.51,47.83,47.83,0,0,1,527.52,10a37.61,37.61,0,0,1,10.38,4.29l-4.35,27.94A21.89,21.89,0,0,0,526.34,37a23.91,23.91,0,0,0-9.56-1.73,22.33,22.33,0,0,0-8.45,1.55,19.62,19.62,0,0,0-6.58,4.28,19.09,19.09,0,0,0-4.22,6.46A21.32,21.32,0,0,0,496,55.55a17.43,17.43,0,0,0,1.36,7.08A16.08,16.08,0,0,0,501.19,68,16.45,16.45,0,0,0,507,71.39a22.41,22.41,0,0,0,7.39,1.18,25.94,25.94,0,0,0,8.26-1.31A30.43,30.43,0,0,0,530,67.72Z"/><path class="cls-1" d="M627.45,51.2a44.83,44.83,0,0,1-4,18.88A49,49,0,0,1,612.6,85.36a50.9,50.9,0,0,1-15.71,10.19,48,48,0,0,1-18.63,3.72,45,45,0,0,1-17-3.23,44.17,44.17,0,0,1-14-8.94,42.17,42.17,0,0,1-9.5-13.48,40.63,40.63,0,0,1-3.48-16.83,44.87,44.87,0,0,1,4-18.88,49.85,49.85,0,0,1,26.52-25.58A47.86,47.86,0,0,1,583.48,8.6a44.24,44.24,0,0,1,16.95,3.29,45.24,45.24,0,0,1,14,9A42.24,42.24,0,0,1,624,34.37,40.7,40.7,0,0,1,627.45,51.2ZM579.38,72.94a18.8,18.8,0,0,0,7.82-1.68,20.63,20.63,0,0,0,6.46-4.47A21.39,21.39,0,0,0,598,60.27a19.55,19.55,0,0,0,1.61-7.82,17.92,17.92,0,0,0-1.3-6.9A16.75,16.75,0,0,0,594.66,40a17.57,17.57,0,0,0-5.53-3.73,17.23,17.23,0,0,0-6.89-1.37,18.68,18.68,0,0,0-7.89,1.68,20.79,20.79,0,0,0-6.4,4.53,21.22,21.22,0,0,0-4.28,6.59,20,20,0,0,0-1.56,7.82,17.88,17.88,0,0,0,1.31,6.89,16.48,16.48,0,0,0,3.6,5.47,17.27,17.27,0,0,0,5.47,3.66A17,17,0,0,0,579.38,72.94Z"/><path class="cls-1" d="M637.63,10.47h29.31a42,42,0,0,1,16.21,3.1,40.62,40.62,0,0,1,13,8.51,39.47,39.47,0,0,1,11.86,28.38,41.75,41.75,0,0,1-4.22,18.75,48.22,48.22,0,0,1-11.24,14.85,52.9,52.9,0,0,1-16,9.81,50,50,0,0,1-18.45,3.54H624.59Zm42.73,41a16.34,16.34,0,0,0-1.12-6,15.56,15.56,0,0,0-3.17-5A14.88,14.88,0,0,0,671.23,37a15.12,15.12,0,0,0-6.15-1.24h-4.35l-5.46,36.27h4.22a19.69,19.69,0,0,0,7.76-1.61A22.33,22.33,0,0,0,674,66.05a21.52,21.52,0,0,0,4.66-6.59A18.93,18.93,0,0,0,680.36,51.45Z"/><path class="cls-1" d="M718.24,10.47h54.27l-3.72,24.34h-27.2l-1,7.33h27.2l-3.6,23.35H737l-1.12,7.57h27.45l-3.6,24.35H705.2Z"/><path class="cls-1" d="M783.5,10.47h17.64v3.85H794.4V34.75h-4.19V14.32H783.5Z"/><path class="cls-1" d="M831.76,10.47V34.75H827.7V17.48l-8.1,17.27h-2.75l-8.16-17.23V34.75h-4V10.47h5.05l8.53,18.45,8.53-18.45Z"/></g></g></svg>