<svg id="Layer_1" data-name="Layer 1" xmlns="http://www.w3.org/2000/svg" viewBox="0 0 209.28 21.98"><defs><style>.cls-1{fill:#cb2026;}</style></defs><title>Bovada</title><path class="cls-1" d="M70.67,15.25c0,4.2-2.73,6.58-6.9,6.58H47c-4.06,0-6.94-2.53-6.94-6.58V6.35A6.72,6.72,0,0,1,47,.09H63.77c4.55,0,6.9,2.85,6.9,6.91ZM66,8.34C66,5,64.76,5,63.46,4.77H47.53c-1.75,0-2.77.45-2.77,3.14v5.94c0,2.21.76,3.17,2.51,3.27l16.23,0C64.79,17.13,66,16,66,13.82Z"/><path class="cls-1" d="M144.46.09h23.71c4.05,0,7,2.53,7,6.58v8.9a6.68,6.68,0,0,1-6.93,6.26H144.46Zm4.7,17h19a2.5,2.5,0,0,0,2.24-2.48V7.23A2.69,2.69,0,0,0,168,4.7H149.16Z"/><path class="cls-1" d="M128.72,5.08C127.31,2.35,125.61,0,122.55,0s-4.64,2.26-6.14,5.08l-8.93,16.84h5.36s1.56-3,3.4-6.38h12.58l3.52,6.38h5.2ZM118.15,11.9l3-5.56s.8-1.64,1.44-1.64S124,6.33,124,6.33l3,5.57Z"/><path class="cls-1" d="M90.76,15.84s.7,1.43,1.35,1.43,1.3-1.43,1.3-1.43L101.78.06h5.36L98.2,16.9c-1.5,2.82-2.89,5.08-6.1,5.08S87.43,19.7,86,17L77.08.06h5.35Z"/><path class="cls-1" d="M30.22,10.87c1.23-1.23,1.23-2.65,1.23-4.06,0-3.91-1-6.76-6.85-6.76H.54l0,21.77H24.64c5.78,0,7.29-2.79,7.29-6.73C31.92,13.13,31.15,11.46,30.22,10.87Zm-25-6.11H24.8c1.12,0,1.91.56,1.91,2.18s-.81,2.18-1.91,2.18H5.22ZM25.3,17.09H5.22V12.73H25.3c1.12,0,1.91.57,1.91,2.18S26.39,17.09,25.3,17.09Z"/><path class="cls-1" d="M201,5.08C199.57,2.35,197.87,0,194.81,0s-4.64,2.26-6.14,5.08l-8.93,16.84h5.36s1.56-3,3.4-6.38h12.58l3.52,6.38h5.2ZM190.41,11.9l3-5.56s.81-1.64,1.44-1.64,1.44,1.63,1.44,1.63l3,5.57Z"/></svg>