<svg xmlns="http://www.w3.org/2000/svg" xmlns:xlink="http://www.w3.org/1999/xlink" width="180" height="60" viewBox="0 0 180 60"><defs><style>.a{fill:#fff;}.b{fill:url(#a);}</style><linearGradient id="a" y1="0.5" x2="1" y2="0.5" gradientUnits="objectBoundingBox"><stop offset="0" stop-color="#a937ae"/><stop offset="1" stop-color="#e237d6"/></linearGradient></defs><g transform="translate(-3732.599 2828.629)"><g transform="translate(3732.599 -2802.572)"><path class="a" d="M3732.6-2768.073v-.21a1.952,1.952,0,0,0,.477-.954,9.891,9.891,0,0,0,.256-1.442q.082-.769.093-1.466t.012-1.048v-8.424q0-.349-.012-.78a5.55,5.55,0,0,0-.093-.872,3.94,3.94,0,0,0-.256-.849,1.984,1.984,0,0,0-.477-.687v-.209h14.266l.954,3.188-.187.117a3.637,3.637,0,0,0-1.059-.5,10.774,10.774,0,0,0-1.419-.325q-.779-.129-1.664-.187c-.59-.039-1.179-.058-1.769-.058h-5.539v5.143h10.449l.093.186-1.675,2.7h-.234a1.981,1.981,0,0,0-.628-.314,6.378,6.378,0,0,0-.873-.209,9.781,9.781,0,0,0-1-.116c-.349-.024-.687-.036-1.013-.036h-5.12v5.12h4.12q.721,0,1.815-.047t2.269-.151q1.176-.105,2.292-.3a10.54,10.54,0,0,0,1.909-.5l.14.116-1.862,3.119Z" transform="translate(-3732.599 2785.317)"/><path class="a" d="M3768.195-2768.073v-.21a1.948,1.948,0,0,0,.478-.954,10.024,10.024,0,0,0,.256-1.442q.081-.769.092-1.466t.012-1.048v-8.424q0-.349-.012-.78a5.666,5.666,0,0,0-.092-.872,4,4,0,0,0-.256-.849,1.98,1.98,0,0,0-.478-.687v-.209h4.515v.209a1.858,1.858,0,0,0-.535.687,4.053,4.053,0,0,0-.279.849,4.965,4.965,0,0,0-.105.872q-.01.431-.01.78v11.31h2.7c.155,0,.43,0,.827-.011s.861-.02,1.4-.036,1.121-.042,1.757-.081,1.268-.1,1.9-.175,1.229-.171,1.8-.279a7.849,7.849,0,0,0,1.489-.419l.116.116-1.839,3.119Z" transform="translate(-3746.646 2785.317)"/><path class="a" d="M3826.543-2777.591a1.758,1.758,0,0,0,.733.221q.407.035.826.035h2.979a3.173,3.173,0,0,0,2.351-.779,2.633,2.633,0,0,0,.768-1.92,2.511,2.511,0,0,0-.85-2.025,3.245,3.245,0,0,0-2.176-.721h-7.447v9.587q0,.419.011,1.141t.092,1.466a10.154,10.154,0,0,0,.246,1.385,1.738,1.738,0,0,0,.489.918v.21h-4.515v-.21a1.893,1.893,0,0,0,.512-.954,8.928,8.928,0,0,0,.267-1.442q.082-.769.094-1.466c.007-.465.012-.814.012-1.048v-8.424c0-.232,0-.493-.012-.78a5.61,5.61,0,0,0-.094-.872,3.571,3.571,0,0,0-.267-.849,1.964,1.964,0,0,0-.512-.687v-.209h10.938a7.8,7.8,0,0,1,2.433.36,5.627,5.627,0,0,1,1.884,1.012,4.474,4.474,0,0,1,1.211,1.594,4.96,4.96,0,0,1,.431,2.084,4.188,4.188,0,0,1-1.234,3.164,5.773,5.773,0,0,1-3.351,1.466l-.023.07,1.513,2.211q.489.721,1.036,1.42t1.116,1.326a15.691,15.691,0,0,0,1.141,1.14,6.007,6.007,0,0,0,1.129.815v.187a4.214,4.214,0,0,1-1.815.4,4.3,4.3,0,0,1-1.408-.221,4.4,4.4,0,0,1-1.187-.628,6.059,6.059,0,0,1-1.023-.977,14.521,14.521,0,0,1-.943-1.269l-2.839-4.236h-4.1l-.093-.163,1.512-2.327Z" transform="translate(-3767.018 2785.317)"/><path class="a" d="M3877.181-2780.418a8.44,8.44,0,0,0-2.211-2.759,9.343,9.343,0,0,0-1.018-.71,9.932,9.932,0,0,0-1.4,2c.155.11.306.222.45.344a6.059,6.059,0,0,1,1.559,2.036,6.3,6.3,0,0,1,.582,2.769,6.3,6.3,0,0,1-.582,2.769,6.074,6.074,0,0,1-1.559,2.036,6.784,6.784,0,0,1-2.292,1.257,8.877,8.877,0,0,1-2.78.43,8.765,8.765,0,0,1-2.77-.43,6.916,6.916,0,0,1-2.292-1.257,6,6,0,0,1-1.571-2.036,6.326,6.326,0,0,1-.582-2.769,6.323,6.323,0,0,1,.582-2.769,5.982,5.982,0,0,1,1.571-2.036,6.9,6.9,0,0,1,2.292-1.257,8.443,8.443,0,0,1,1.765-.371,11.376,11.376,0,0,1,1.2-2.333c-.066,0-.131-.008-.2-.008a11.973,11.973,0,0,0-3.817.606,10,10,0,0,0-3.2,1.733,8.435,8.435,0,0,0-2.211,2.759,8.017,8.017,0,0,0-.826,3.677,8.018,8.018,0,0,0,.826,3.677,8.436,8.436,0,0,0,2.211,2.758,10.018,10.018,0,0,0,3.2,1.733,11.98,11.98,0,0,0,3.817.605,12.087,12.087,0,0,0,3.827-.605,10,10,0,0,0,3.212-1.733,8.44,8.44,0,0,0,2.211-2.758,8.005,8.005,0,0,0,.826-3.677A8,8,0,0,0,3877.181-2780.418Z" transform="translate(-3781.905 2785.515)"/><path class="a" d="M3901.14-2784.806a1.046,1.046,0,0,0,0,.687,4.184,4.184,0,0,0,.361.849,9.6,9.6,0,0,0,.547.872l.558.78,2.91,3.979h.093l2.91-3.979.559-.78a8.237,8.237,0,0,0,.535-.872,4,4,0,0,0,.338-.849.968.968,0,0,0-.036-.687v-.209h4.422v.209a7.143,7.143,0,0,0-.733.687q-.384.406-.756.849l-.71.872-.593.78-4.655,6.259v2.165q0,.35.012,1.048t.093,1.466a11.02,11.02,0,0,0,.245,1.442,1.882,1.882,0,0,0,.465.954v.21h-4.353v-.21a1.817,1.817,0,0,0,.455-.954,11.109,11.109,0,0,0,.22-1.442c.047-.513.075-1,.082-1.466s.011-.814.011-1.048v-2.165l-4.792-6.259-.594-.78q-.338-.431-.709-.861l-.756-.837a7.993,7.993,0,0,0-.757-.71v-.209h4.63Z" transform="translate(-3797.112 2785.317)"/><path class="a" d="M3927.8-2768.283a3.81,3.81,0,0,0,.814-.954,15.836,15.836,0,0,0,.838-1.442q.4-.769.722-1.466l.489-1.048,3.7-8.424c.109-.232.223-.5.338-.792a6.622,6.622,0,0,0,.279-.873,2.587,2.587,0,0,0,.07-.837,1.127,1.127,0,0,0-.291-.687v-.209h4.957v.209a1.174,1.174,0,0,0-.023.908,8.378,8.378,0,0,0,.512,1.349l4.353,9.355.5,1.048q.338.7.745,1.466t.815,1.442a4.017,4.017,0,0,0,.732.954v.21h-4.421v-.21a1.089,1.089,0,0,0,.21-.674,3.07,3.07,0,0,0-.117-.814,6.034,6.034,0,0,0-.3-.838l-.348-.769-.442-.977h-8.773l-.4.977-.326.78a6.678,6.678,0,0,0-.3.85,3.915,3.915,0,0,0-.139.8.967.967,0,0,0,.186.663v.21H3927.8Zm9.635-14.125h-.093l-3.328,7.865h6.911Z" transform="translate(-3809.425 2785.317)"/><path class="a" d="M3968.624-2768.073v-.21a1.948,1.948,0,0,0,.477-.954,9.761,9.761,0,0,0,.256-1.442q.081-.769.093-1.466t.012-1.048v-8.424c0-.232,0-.493-.012-.78a5.607,5.607,0,0,0-.093-.872,3.887,3.887,0,0,0-.256-.849,1.978,1.978,0,0,0-.477-.687v-.209h4.515v.209a1.856,1.856,0,0,0-.536.687,4.022,4.022,0,0,0-.278.849,4.827,4.827,0,0,0-.1.872c-.009.288-.012.548-.012.78v11.31h2.7c.156,0,.431,0,.827-.011s.861-.02,1.4-.036,1.12-.042,1.757-.081,1.268-.1,1.9-.175,1.229-.171,1.8-.279a7.818,7.818,0,0,0,1.489-.419l.116.116-1.838,3.119Z" transform="translate(-3825.463 2785.317)"/><path class="a" d="M4002.836-2768.073v-.21a1.943,1.943,0,0,0,.477-.954,10.227,10.227,0,0,0,.257-1.442q.081-.769.092-1.466c.008-.465.011-.814.011-1.048v-8.424c0-.232,0-.493-.011-.78a5.727,5.727,0,0,0-.092-.872,4.084,4.084,0,0,0-.257-.849,1.971,1.971,0,0,0-.477-.687v-.209H4017.1l.954,3.188-.187.117a3.613,3.613,0,0,0-1.059-.5,10.72,10.72,0,0,0-1.419-.325q-.779-.129-1.664-.187t-1.768-.058h-5.539v5.143h10.449l.093.186-1.675,2.7h-.233a1.992,1.992,0,0,0-.628-.314,6.411,6.411,0,0,0-.874-.209,9.762,9.762,0,0,0-1-.116q-.525-.036-1.013-.036h-5.119v5.12h4.119q.721,0,1.815-.047t2.269-.151q1.175-.105,2.292-.3a10.562,10.562,0,0,0,1.909-.5l.139.116-1.862,3.119Z" transform="translate(-3838.964 2785.317)"/></g><g transform="translate(3786.43 -2776.29)"><path class="a" d="M3821.647-2739.832a3.581,3.581,0,0,1,.968-1.214,4.261,4.261,0,0,1,1.455-.753,6.18,6.18,0,0,1,1.813-.256,6.8,6.8,0,0,1,1.05.076,7.109,7.109,0,0,1,.871.19,5.247,5.247,0,0,1,.661.236c.184.081.328.15.43.2l-.317,1.065h-.092a1.855,1.855,0,0,0-.543-.482,3.286,3.286,0,0,0-.712-.311,4.329,4.329,0,0,0-.773-.164,6.158,6.158,0,0,0-.728-.046,4.752,4.752,0,0,0-1.373.194,3.464,3.464,0,0,0-1.132.574,2.771,2.771,0,0,0-.773.948,2.863,2.863,0,0,0-.287,1.305,2.823,2.823,0,0,0,.3,1.332,2.9,2.9,0,0,0,.8.958,3.429,3.429,0,0,0,1.142.573,4.693,4.693,0,0,0,1.331.189,5.125,5.125,0,0,0,.814-.066,3.956,3.956,0,0,0,.809-.22,3.585,3.585,0,0,0,.743-.394,2.616,2.616,0,0,0,.615-.6l.082.031-.43,1.506a4.977,4.977,0,0,1-1.188.415,6.319,6.319,0,0,1-1.382.148,6.044,6.044,0,0,1-1.7-.236,4.4,4.4,0,0,1-1.439-.706,3.487,3.487,0,0,1-1-1.188,3.562,3.562,0,0,1-.374-1.669A3.67,3.67,0,0,1,3821.647-2739.832Z" transform="translate(-3821.294 2742.054)"/><path class="a" d="M3842.972-2734.5a1.657,1.657,0,0,0,.358-.425q.195-.3.374-.641t.323-.65q.144-.313.2-.467l1.6-3.708c.047-.1.1-.219.148-.348a2.753,2.753,0,0,0,.123-.394,1.216,1.216,0,0,0,.031-.379.5.5,0,0,0-.128-.3v-.072h1.863v.072a.541.541,0,0,0-.009.409,3.483,3.483,0,0,0,.226.6l1.895,4.117.225.467.333.65c.119.226.239.439.358.641a1.762,1.762,0,0,0,.323.425v.072h-1.6v-.072a.481.481,0,0,0,.093-.3,1.387,1.387,0,0,0-.051-.363,2.667,2.667,0,0,0-.134-.379l-.153-.343-.3-.635h-4.035l-.276.635q-.072.153-.148.343a2.546,2.546,0,0,0-.123.379,1.784,1.784,0,0,0-.051.363.5.5,0,0,0,.077.3v.072h-1.547Zm4.046-6.545h-.041l-1.618,3.79h3.38Z" transform="translate(-3829.848 2741.988)"/><path class="a" d="M3872.287-2740.467a1.185,1.185,0,0,0-.441-.358,3.584,3.584,0,0,0-.676-.261,5.275,5.275,0,0,0-.8-.159,6.839,6.839,0,0,0-.825-.051,5.1,5.1,0,0,0-1.019.1,3.1,3.1,0,0,0-.825.282,1.59,1.59,0,0,0-.548.456,1,1,0,0,0-.2.609.758.758,0,0,0,.195.543,1.376,1.376,0,0,0,.533.328,3.822,3.822,0,0,0,.789.184q.451.062.962.1l.851.082q.431.041.83.118a4.23,4.23,0,0,1,.743.21,2.352,2.352,0,0,1,.6.338,1.446,1.446,0,0,1,.41.507,1.638,1.638,0,0,1,.148.732,1.874,1.874,0,0,1-.261.993,2.159,2.159,0,0,1-.738.722,3.812,3.812,0,0,1-1.152.445,6.8,6.8,0,0,1-1.5.153,7.13,7.13,0,0,1-1.286-.1,6.583,6.583,0,0,1-.979-.25,4.969,4.969,0,0,1-.717-.312l-.491-.277.44-.891h.072a2,2,0,0,0,.542.441,3.855,3.855,0,0,0,.763.328,5.992,5.992,0,0,0,.912.2,6.693,6.693,0,0,0,.979.073,3.59,3.59,0,0,0,1.93-.421,1.218,1.218,0,0,0,.651-1.034.8.8,0,0,0-.174-.527,1.225,1.225,0,0,0-.472-.338,3.017,3.017,0,0,0-.686-.2c-.26-.044-.536-.083-.83-.118q-.655-.072-1.347-.138a6.171,6.171,0,0,1-1.26-.245,2.317,2.317,0,0,1-.932-.533,1.328,1.328,0,0,1-.363-1,1.861,1.861,0,0,1,.251-.953,2.212,2.212,0,0,1,.712-.732,3.721,3.721,0,0,1,1.106-.471,5.643,5.643,0,0,1,1.434-.169,6.5,6.5,0,0,1,1.224.107,9.475,9.475,0,0,1,.973.236,5.642,5.642,0,0,1,.67.246c.171.078.273.128.308.149l-.431.85Z" transform="translate(-3838.891 2742.054)"/><path class="a" d="M3889.369-2736.216a5.461,5.461,0,0,0,.051.65,3.732,3.732,0,0,0,.143.641.808.808,0,0,0,.272.425v.072h-1.782v-.072a.8.8,0,0,0,.271-.425,3.643,3.643,0,0,0,.144-.641,5.364,5.364,0,0,0,.051-.65c0-.209.005-.364.005-.467v-3.708c0-.1,0-.219-.005-.348a1.866,1.866,0,0,0-.051-.389,1.564,1.564,0,0,0-.144-.379.864.864,0,0,0-.271-.307v-.072h1.782v.072a.876.876,0,0,0-.272.307,1.6,1.6,0,0,0-.143.379,1.9,1.9,0,0,0-.051.389q-.005.195-.005.348v3.708Q3889.364-2736.528,3889.369-2736.216Z" transform="translate(-3847.638 2741.988)"/><path class="a" d="M3909.234-2736.216a6.075,6.075,0,0,0,.056.65,5.061,5.061,0,0,0,.128.641.845.845,0,0,0,.226.425v.072h-1.915v-.072a1.354,1.354,0,0,0-.174-.65,4.915,4.915,0,0,0-.5-.732l-4.1-5.05h-.041v4.25c0,.1,0,.258,0,.467s.017.425.041.65a4.545,4.545,0,0,0,.113.641.811.811,0,0,0,.22.425v.072h-1.567v-.072a.841.841,0,0,0,.205-.425,4.566,4.566,0,0,0,.1-.641c.021-.225.032-.442.036-.65s0-.364,0-.467v-3.708q0-.153,0-.348a3.084,3.084,0,0,0-.036-.389,1.835,1.835,0,0,0-.1-.379.813.813,0,0,0-.205-.307v-.072h2.079v.072a1.929,1.929,0,0,0,.026.333,1.1,1.1,0,0,0,.1.3,3.107,3.107,0,0,0,.205.343,5.6,5.6,0,0,0,.343.445l3.861,4.7h.042v-4.691c0-.1,0-.219-.006-.348a2.622,2.622,0,0,0-.041-.395,1.842,1.842,0,0,0-.113-.384.864.864,0,0,0-.209-.307v-.072h1.587v.072a.8.8,0,0,0-.219.307,1.866,1.866,0,0,0-.113.379,2.506,2.506,0,0,0-.041.389q-.005.195-.005.348v3.708Q3909.224-2736.528,3909.234-2736.216Z" transform="translate(-3853.034 2741.988)"/><path class="a" d="M3931.082-2741.788a4.266,4.266,0,0,1,1.362.758,3.736,3.736,0,0,1,.947,1.2,3.511,3.511,0,0,1,.358,1.6,3.508,3.508,0,0,1-.358,1.6,3.729,3.729,0,0,1-.947,1.2,4.272,4.272,0,0,1-1.362.758,4.877,4.877,0,0,1-1.6.266,4.879,4.879,0,0,1-1.6-.266,4.338,4.338,0,0,1-1.367-.758,3.679,3.679,0,0,1-.953-1.2,3.509,3.509,0,0,1-.359-1.6,3.512,3.512,0,0,1,.359-1.6,3.686,3.686,0,0,1,.953-1.2,4.333,4.333,0,0,1,1.367-.758,4.892,4.892,0,0,1,1.6-.266A4.89,4.89,0,0,1,3931.082-2741.788Zm-2.919.706a3.233,3.233,0,0,0-1.086.6,2.847,2.847,0,0,0-.737.963,2.963,2.963,0,0,0-.272,1.3,2.964,2.964,0,0,0,.272,1.3,2.849,2.849,0,0,0,.737.963,3.215,3.215,0,0,0,1.086.6,4.152,4.152,0,0,0,1.316.205,4.152,4.152,0,0,0,1.316-.205,3.16,3.16,0,0,0,1.081-.6,2.891,2.891,0,0,0,.732-.963,2.964,2.964,0,0,0,.271-1.3,2.963,2.963,0,0,0-.271-1.3,2.889,2.889,0,0,0-.732-.963,3.177,3.177,0,0,0-1.081-.6,4.186,4.186,0,0,0-1.316-.2A4.186,4.186,0,0,0,3928.163-2741.081Z" transform="translate(-3862.296 2742.054)"/></g><g transform="translate(3818.324 -2828.629)"><path class="b" d="M5602.182-2635.818c1.788-1.817,3.174-3.455,4.8-4.808s3.508-2.442,5.177-3.743c-10.126,4.11-17.872,10.655-21.708,21.339a4.242,4.242,0,0,1,.01-.981,34.786,34.786,0,0,1,30.472-26.453c6.141-.544,12.333-.487,18.5-.8,5.847-.3,11.289-1.662,15.41-6.926a10.466,10.466,0,0,1-.117,1.84,22.646,22.646,0,0,1-10.148,13.615,53.19,53.19,0,0,1-15.741,6.469A56,56,0,0,1,5602.182-2635.818Z" transform="translate(-5590.42 2658.193)"/></g></g></svg>