<svg data-v-423bf9ae="" xmlns="http://www.w3.org/2000/svg" viewBox="0 0 553 90" class="iconLeft"><!----><!----><!----><g data-v-423bf9ae="" id="e5f3b40f-6d7a-4f4a-b1c4-a0e56ccff6a5" fill="#ffffff" transform="matrix(6.557377322561851,0,0,6.557377322561851,156.12291266072953,-7.819673684424444)"><path d="M3.23 12.55L1.11 5.25L1.11 5.25Q1.02 4.92 0.95 4.73L0.95 4.73L0.95 4.73Q0.88 4.54 0.77 4.45L0.77 4.45L0.77 4.45Q0.66 4.35 0.47 4.34L0.47 4.34L0.47 4.34Q0.28 4.32-0.06 4.32L-0.06 4.32L-0.06 4.32Q-0.07 4.17-0.07 4.04L-0.07 4.04L-0.07 3.64L-0.07 3.64Q0.33 3.65 0.68 3.66L0.68 3.66L0.68 3.66Q0.82 3.66 0.97 3.66L0.97 3.66L0.97 3.66Q1.12 3.66 1.25 3.66L1.25 3.66L1.25 3.66Q1.39 3.66 1.49 3.66L1.49 3.66L1.49 3.66Q1.60 3.66 1.66 3.66L1.66 3.66L1.66 3.66Q1.96 3.66 2.36 3.65L2.36 3.65L2.36 3.65Q2.76 3.64 3.25 3.64L3.25 3.64L3.25 4.32L3.25 4.32Q2.96 4.32 2.75 4.33L2.75 4.33L2.75 4.33Q2.55 4.34 2.42 4.38L2.42 4.38L2.42 4.38Q2.29 4.42 2.23 4.49L2.23 4.49L2.23 4.49Q2.17 4.57 2.17 4.70L2.17 4.70L2.17 4.70Q2.17 4.80 2.20 4.91L2.20 4.91L2.20 4.91Q2.23 5.02 2.27 5.18L2.27 5.18L2.27 5.18Q2.47 5.90 2.68 6.70L2.68 6.70L2.68 6.70Q2.90 7.50 3.12 8.31L3.12 8.31L3.12 8.31Q3.34 9.13 3.55 9.93L3.55 9.93L3.55 9.93Q3.77 10.73 3.96 11.44L3.96 11.44L5.92 3.75L7.21 3.75L9.30 11.46L10.99 5.14L10.99 5.14Q11.03 4.98 11.05 4.87L11.05 4.87L11.05 4.87Q11.08 4.75 11.09 4.66L11.09 4.66L11.09 4.66Q11.09 4.55 11.04 4.48L11.04 4.48L11.04 4.48Q10.99 4.41 10.86 4.38L10.86 4.38L10.86 4.38Q10.73 4.34 10.51 4.33L10.51 4.33L10.51 4.33Q10.30 4.32 9.99 4.32L9.99 4.32L9.99 3.64L9.99 3.64Q10.49 3.64 10.90 3.65L10.90 3.65L10.90 3.65Q11.31 3.66 11.59 3.66L11.59 3.66L11.59 3.66Q11.94 3.66 12.34 3.66L12.34 3.66L12.34 3.66Q12.74 3.66 13.13 3.64L13.13 3.64L13.13 4.32L13.13 4.32Q12.81 4.32 12.62 4.34L12.62 4.34L12.62 4.34Q12.43 4.35 12.30 4.44L12.30 4.44L12.30 4.44Q12.17 4.53 12.09 4.71L12.09 4.71L12.09 4.71Q12.00 4.89 11.91 5.22L11.91 5.22L11.91 5.22Q11.90 5.24 11.81 5.55L11.81 5.55L11.81 5.55Q11.72 5.86 11.58 6.36L11.58 6.36L11.58 6.36Q11.44 6.86 11.27 7.49L11.27 7.49L11.27 7.49Q11.09 8.11 10.90 8.78L10.90 8.78L10.90 8.78Q10.71 9.45 10.52 10.09L10.52 10.09L10.52 10.09Q10.34 10.73 10.19 11.26L10.19 11.26L10.19 11.26Q10.04 11.78 9.94 12.13L9.94 12.13L9.94 12.13Q9.84 12.48 9.82 12.55L9.82 12.55L8.59 12.55L6.54 4.66L4.50 12.55L3.23 12.55ZM19.17 9.49L18.76 9.61L13.92 9.61L13.92 9.61Q13.92 10.16 14.09 10.58L14.09 10.58L14.09 10.58Q14.25 10.99 14.55 11.28L14.55 11.28L14.55 11.28Q14.85 11.57 15.27 11.73L15.27 11.73L15.27 11.73Q15.70 11.89 16.21 11.89L16.21 11.89L16.21 11.89Q16.93 11.89 17.45 11.59L17.45 11.59L17.45 11.59Q17.98 11.30 18.27 10.68L18.27 10.68L19.09 10.81L19.09 10.81Q18.78 11.68 17.99 12.14L17.99 12.14L17.99 12.14Q17.20 12.61 16.05 12.61L16.05 12.61L16.05 12.61Q15.28 12.61 14.66 12.37L14.66 12.37L14.66 12.37Q14.05 12.14 13.62 11.72L13.62 11.72L13.62 11.72Q13.19 11.29 12.97 10.72L12.97 10.72L12.97 10.72Q12.74 10.15 12.74 9.42L12.74 9.42L12.74 9.42Q12.74 8.68 12.97 8.09L12.97 8.09L12.97 8.09Q13.21 7.50 13.63 7.08L13.63 7.08L13.63 7.08Q14.05 6.65 14.65 6.42L14.65 6.42L14.65 6.42Q15.25 6.19 15.98 6.19L15.98 6.19L15.98 6.19Q16.72 6.19 17.31 6.41L17.31 6.41L17.31 6.41Q17.90 6.63 18.31 7.05L18.31 7.05L18.31 7.05Q18.72 7.48 18.94 8.09L18.94 8.09L18.94 8.09Q19.16 8.70 19.17 9.49L19.17 9.49ZM13.92 9.00L18.06 9.00L18.06 9.00Q17.98 7.96 17.45 7.43L17.45 7.43L17.45 7.43Q16.91 6.90 16.00 6.90L16.00 6.90L16.00 6.90Q15.57 6.90 15.21 7.04L15.21 7.04L15.21 7.04Q14.85 7.19 14.59 7.45L14.59 7.45L14.59 7.45Q14.32 7.72 14.15 8.10L14.15 8.10L14.15 8.10Q13.99 8.48 13.92 9.00L13.92 9.00ZM24.42 12.61L24.42 12.61L24.42 12.61Q23.65 12.61 23.07 12.31L23.07 12.31L23.07 12.31Q22.50 12.02 22.09 11.42L22.09 11.42L22.08 12.49L22.08 12.49Q21.86 12.48 21.56 12.48L21.56 12.48L21.56 12.48Q21.27 12.48 20.97 12.47L20.97 12.47L20.97 12.47Q20.67 12.47 20.40 12.47L20.40 12.47L20.40 12.47Q20.14 12.46 19.99 12.46L19.99 12.46L19.99 11.85L19.99 11.85Q20.36 11.85 20.57 11.83L20.57 11.83L20.57 11.83Q20.77 11.80 20.87 11.74L20.87 11.74L20.87 11.74Q20.96 11.68 20.98 11.59L20.98 11.59L20.98 11.59Q20.99 11.50 20.99 11.38L20.99 11.38L20.99 4.61L20.99 4.61Q20.99 4.48 20.93 4.41L20.93 4.41L20.93 4.41Q20.87 4.33 20.74 4.30L20.74 4.30L20.74 4.30Q20.62 4.27 20.43 4.26L20.43 4.26L20.43 4.26Q20.23 4.25 19.98 4.25L19.98 4.25L19.98 3.62L19.98 3.62Q20.58 3.62 21.12 3.62L21.12 3.62L21.12 3.62Q21.66 3.61 22.15 3.60L22.15 3.60L22.16 7.29L22.16 7.29Q22.55 6.76 23.12 6.47L23.12 6.47L23.12 6.47Q23.69 6.19 24.41 6.19L24.41 6.19L24.41 6.19Q25.09 6.19 25.64 6.42L25.64 6.42L25.64 6.42Q26.20 6.65 26.59 7.08L26.59 7.08L26.59 7.08Q26.98 7.50 27.20 8.08L27.20 8.08L27.20 8.08Q27.41 8.67 27.41 9.41L27.41 9.41L27.41 9.41Q27.41 10.12 27.20 10.71L27.20 10.71L27.20 10.71Q26.99 11.30 26.60 11.72L26.60 11.72L26.60 11.72Q26.21 12.14 25.66 12.37L25.66 12.37L25.66 12.37Q25.10 12.61 24.42 12.61ZM24.18 6.90L24.18 6.90L24.18 6.90Q23.69 6.90 23.31 7.08L23.31 7.08L23.31 7.08Q22.92 7.25 22.65 7.56L22.65 7.56L22.65 7.56Q22.38 7.88 22.24 8.34L22.24 8.34L22.24 8.34Q22.09 8.81 22.09 9.40L22.09 9.40L22.09 9.40Q22.09 9.98 22.24 10.44L22.24 10.44L22.24 10.44Q22.38 10.90 22.65 11.22L22.65 11.22L22.65 11.22Q22.91 11.54 23.30 11.71L23.30 11.71L23.30 11.71Q23.68 11.89 24.17 11.89L24.17 11.89L24.17 11.89Q24.64 11.89 25.02 11.71L25.02 11.71L25.02 11.71Q25.40 11.53 25.67 11.20L25.67 11.20L25.67 11.20Q25.94 10.87 26.09 10.41L26.09 10.41L26.09 10.41Q26.23 9.95 26.23 9.37L26.23 9.37L26.23 9.37Q26.23 8.79 26.08 8.35L26.08 8.35L26.08 8.35Q25.94 7.90 25.67 7.57L25.67 7.57L25.67 7.57Q25.40 7.25 25.02 7.07L25.02 7.07L25.02 7.07Q24.64 6.90 24.18 6.90ZM34.75 3.68L34.75 6.03L33.95 6.03L33.95 6.03Q33.94 5.95 33.94 5.89L33.94 5.89L33.94 5.89Q33.93 5.82 33.93 5.75L33.93 5.75L33.93 5.75Q33.92 5.39 33.76 5.11L33.76 5.11L33.76 5.11Q33.61 4.82 33.32 4.62L33.32 4.62L33.32 4.62Q33.04 4.42 32.65 4.31L32.65 4.31L32.65 4.31Q32.26 4.20 31.78 4.20L31.78 4.20L31.78 4.20Q31.35 4.20 31.00 4.31L31.00 4.31L31.00 4.31Q30.66 4.42 30.42 4.61L30.42 4.61L30.42 4.61Q30.18 4.80 30.05 5.06L30.05 5.06L30.05 5.06Q29.93 5.33 29.93 5.63L29.93 5.63L29.93 5.63Q29.93 5.96 30.06 6.20L30.06 6.20L30.06 6.20Q30.19 6.44 30.41 6.62L30.41 6.62L30.41 6.62Q30.64 6.81 30.95 6.95L30.95 6.95L30.95 6.95Q31.26 7.09 31.62 7.22L31.62 7.22L31.62 7.22Q31.99 7.34 32.39 7.47L32.39 7.47L32.39 7.47Q32.79 7.60 33.20 7.75L33.20 7.75L33.20 7.75Q33.63 7.92 33.98 8.12L33.98 8.12L33.98 8.12Q34.33 8.33 34.58 8.61L34.58 8.61L34.58 8.61Q34.84 8.89 34.98 9.25L34.98 9.25L34.98 9.25Q35.12 9.61 35.12 10.08L35.12 10.08L35.12 10.08Q35.12 10.62 34.91 11.08L34.91 11.08L34.91 11.08Q34.70 11.55 34.32 11.89L34.32 11.89L34.32 11.89Q33.94 12.24 33.40 12.43L33.40 12.43L33.40 12.43Q32.87 12.63 32.21 12.63L32.21 12.63L32.21 12.63Q31.29 12.63 30.62 12.37L30.62 12.37L30.62 12.37Q29.96 12.11 29.59 11.66L29.59 11.66L29.59 12.46L28.69 12.46L28.69 9.67L29.51 9.67L29.51 9.67Q29.51 10.17 29.64 10.57L29.64 10.57L29.64 10.57Q29.77 10.97 30.05 11.26L30.05 11.26L30.05 11.26Q30.33 11.55 30.77 11.70L30.77 11.70L30.77 11.70Q31.21 11.86 31.83 11.86L31.83 11.86L31.83 11.86Q32.29 11.86 32.66 11.74L32.66 11.74L32.66 11.74Q33.04 11.63 33.31 11.41L33.31 11.41L33.31 11.41Q33.58 11.20 33.73 10.89L33.73 10.89L33.73 10.89Q33.88 10.59 33.88 10.21L33.88 10.21L33.88 10.21Q33.88 9.72 33.61 9.41L33.61 9.41L33.61 9.41Q33.35 9.10 32.91 8.88L32.91 8.88L32.91 8.88Q32.47 8.66 31.91 8.49L31.91 8.49L31.91 8.49Q31.36 8.31 30.78 8.09L30.78 8.09L30.78 8.09Q30.28 7.90 29.89 7.68L29.89 7.68L29.89 7.68Q29.51 7.46 29.25 7.18L29.25 7.18L29.25 7.18Q29.00 6.91 28.87 6.57L28.87 6.57L28.87 6.57Q28.74 6.23 28.74 5.80L28.74 5.80L28.74 5.80Q28.74 5.31 28.93 4.89L28.93 4.89L28.93 4.89Q29.12 4.46 29.48 4.15L29.48 4.15L29.48 4.15Q29.85 3.84 30.37 3.66L30.37 3.66L30.37 3.66Q30.88 3.48 31.54 3.48L31.54 3.48L31.54 3.48Q31.88 3.48 32.19 3.51L32.19 3.51L32.19 3.51Q32.50 3.55 32.79 3.63L32.79 3.63L32.79 3.63Q33.08 3.72 33.35 3.87L33.35 3.87L33.35 3.87Q33.63 4.01 33.90 4.25L33.90 4.25L33.90 3.68L33.90 3.68Q34.06 3.68 34.30 3.68L34.30 3.68L34.30 3.68Q34.53 3.68 34.75 3.68L34.75 3.68ZM37.25 4.79L38.12 4.61L38.12 6.34L39.76 6.34L39.76 6.95L38.12 6.95L38.12 10.38L38.12 10.38Q38.12 10.73 38.13 11.00L38.13 11.00L38.13 11.00Q38.14 11.28 38.20 11.48L38.20 11.48L38.20 11.48Q38.25 11.68 38.38 11.78L38.38 11.78L38.38 11.78Q38.51 11.89 38.76 11.89L38.76 11.89L38.76 11.89Q38.86 11.89 38.95 11.85L38.95 11.85L38.95 11.85Q39.05 11.81 39.12 11.72L39.12 11.72L39.12 11.72Q39.19 11.63 39.23 11.49L39.23 11.49L39.23 11.49Q39.28 11.35 39.28 11.15L39.28 11.15L39.90 11.09L39.90 11.09Q39.90 11.49 39.79 11.78L39.79 11.78L39.79 11.78Q39.68 12.07 39.49 12.25L39.49 12.25L39.49 12.25Q39.30 12.43 39.05 12.52L39.05 12.52L39.05 12.52Q38.79 12.61 38.51 12.61L38.51 12.61L38.51 12.61Q38.04 12.61 37.74 12.45L37.74 12.45L37.74 12.45Q37.44 12.29 37.27 12.01L37.27 12.01L37.27 12.01Q37.11 11.74 37.04 11.33L37.04 11.33L37.04 11.33Q36.98 10.93 36.98 10.44L36.98 10.44L36.98 6.95L35.86 6.95L35.86 6.41L35.86 6.41Q36.03 6.41 36.24 6.39L36.24 6.39L36.24 6.39Q36.46 6.37 36.65 6.36L36.65 6.36L36.65 6.36Q36.87 6.34 37.10 6.32L37.10 6.32L37.10 6.32Q37.11 6.27 37.12 6.14L37.12 6.14L37.12 6.14Q37.13 6.02 37.15 5.85L37.15 5.85L37.15 5.85Q37.16 5.68 37.18 5.50L37.18 5.50L37.18 5.50Q37.20 5.32 37.21 5.16L37.21 5.16L37.21 5.16Q37.23 5.01 37.24 4.90L37.24 4.90L37.24 4.90Q37.25 4.80 37.25 4.79L37.25 4.79ZM44.05 6.19L44.05 6.19L44.05 6.19Q44.77 6.19 45.37 6.41L45.37 6.41L45.37 6.41Q45.97 6.64 46.41 7.06L46.41 7.06L46.41 7.06Q46.84 7.49 47.08 8.09L47.08 8.09L47.08 8.09Q47.32 8.69 47.32 9.41L47.32 9.41L47.32 9.41Q47.32 10.10 47.08 10.69L47.08 10.69L47.08 10.69Q46.84 11.29 46.41 11.72L46.41 11.72L46.41 11.72Q45.98 12.14 45.38 12.37L45.38 12.37L45.38 12.37Q44.78 12.61 44.05 12.61L44.05 12.61L44.05 12.61Q43.33 12.61 42.73 12.38L42.73 12.38L42.73 12.38Q42.13 12.15 41.70 11.72L41.70 11.72L41.70 11.72Q41.27 11.29 41.03 10.69L41.03 10.69L41.03 10.69Q40.80 10.10 40.80 9.41L40.80 9.41L40.80 9.41Q40.80 8.69 41.04 8.09L41.04 8.09L41.04 8.09Q41.28 7.49 41.71 7.06L41.71 7.06L41.71 7.06Q42.14 6.64 42.73 6.41L42.73 6.41L42.73 6.41Q43.33 6.19 44.05 6.19ZM44.05 6.90L44.05 6.90L44.05 6.90Q43.57 6.90 43.19 7.08L43.19 7.08L43.19 7.08Q42.81 7.25 42.54 7.57L42.54 7.57L42.54 7.57Q42.27 7.90 42.12 8.36L42.12 8.36L42.12 8.36Q41.98 8.83 41.98 9.40L41.98 9.40L41.98 9.40Q41.98 9.93 42.13 10.40L42.13 10.40L42.13 10.40Q42.27 10.87 42.54 11.20L42.54 11.20L42.54 11.20Q42.81 11.53 43.20 11.71L43.20 11.71L43.20 11.71Q43.58 11.89 44.05 11.89L44.05 11.89L44.05 11.89Q44.52 11.89 44.91 11.71L44.91 11.71L44.91 11.71Q45.29 11.53 45.56 11.20L45.56 11.20L45.56 11.20Q45.83 10.87 45.98 10.40L45.98 10.40L45.98 10.40Q46.13 9.93 46.13 9.40L46.13 9.40L46.13 9.40Q46.13 8.84 45.98 8.37L45.98 8.37L45.98 8.37Q45.83 7.90 45.56 7.57L45.56 7.57L45.56 7.57Q45.29 7.25 44.91 7.08L44.91 7.08L44.91 7.08Q44.52 6.90 44.05 6.90ZM53.29 6.23L53.29 7.63L52.88 7.63L52.88 7.63Q52.74 7.30 52.53 7.18L52.53 7.18L52.53 7.18Q52.33 7.06 51.97 7.06L51.97 7.06L51.97 7.06Q51.64 7.06 51.36 7.22L51.36 7.22L51.36 7.22Q51.08 7.38 50.87 7.67L50.87 7.67L50.87 7.67Q50.67 7.96 50.56 8.36L50.56 8.36L50.56 8.36Q50.44 8.77 50.44 9.27L50.44 9.27L50.44 9.27Q50.43 9.28 50.43 9.44L50.43 9.44L50.43 9.44Q50.43 9.60 50.43 9.84L50.43 9.84L50.43 9.84Q50.42 10.08 50.42 10.35L50.42 10.35L50.42 10.35Q50.42 10.63 50.42 10.88L50.42 10.88L50.42 10.88Q50.42 11.12 50.42 11.29L50.42 11.29L50.42 11.29Q50.42 11.46 50.42 11.47L50.42 11.47L50.42 11.47Q50.42 11.61 50.48 11.69L50.48 11.69L50.48 11.69Q50.54 11.77 50.67 11.81L50.67 11.81L50.67 11.81Q50.81 11.85 51.04 11.85L51.04 11.85L51.04 11.85Q51.26 11.85 51.59 11.85L51.59 11.85L51.59 12.46L51.59 12.46Q51.37 12.46 51.17 12.46L51.17 12.46L51.17 12.46Q50.97 12.46 50.75 12.46L50.75 12.46L50.75 12.46Q50.53 12.46 50.29 12.45L50.29 12.45L50.29 12.45Q50.05 12.45 49.75 12.45L49.75 12.45L49.75 12.45Q49.50 12.45 49.29 12.45L49.29 12.45L49.29 12.45Q49.09 12.46 48.91 12.46L48.91 12.46L48.91 12.46Q48.73 12.46 48.56 12.46L48.56 12.46L48.56 12.46Q48.38 12.46 48.20 12.46L48.20 12.46L48.20 11.85L48.20 11.85Q48.59 11.85 48.81 11.84L48.81 11.84L48.81 11.84Q49.02 11.82 49.12 11.77L49.12 11.77L49.12 11.77Q49.23 11.72 49.24 11.63L49.24 11.63L49.24 11.63Q49.26 11.55 49.26 11.41L49.26 11.41L49.26 7.27L49.26 7.27Q49.26 7.15 49.22 7.09L49.22 7.09L49.22 7.09Q49.18 7.02 49.07 6.99L49.07 6.99L49.07 6.99Q48.96 6.96 48.76 6.96L48.76 6.96L48.76 6.96Q48.56 6.95 48.23 6.95L48.23 6.95L48.23 6.34L48.23 6.34Q48.31 6.34 48.47 6.35L48.47 6.35L48.47 6.35Q48.63 6.35 48.79 6.35L48.79 6.35L49.19 6.35L49.19 6.35Q49.48 6.35 49.77 6.34L49.77 6.34L49.77 6.34Q50.06 6.32 50.37 6.32L50.37 6.32L50.37 7.56L50.37 7.56Q50.70 6.92 51.28 6.55L51.28 6.55L51.28 6.55Q51.86 6.19 52.66 6.19L52.66 6.19L52.66 6.19Q52.96 6.19 53.29 6.23L53.29 6.23ZM60.46 9.49L60.05 9.61L55.21 9.61L55.21 9.61Q55.22 10.16 55.38 10.58L55.38 10.58L55.38 10.58Q55.55 10.99 55.85 11.28L55.85 11.28L55.85 11.28Q56.15 11.57 56.57 11.73L56.57 11.73L56.57 11.73Q56.99 11.89 57.50 11.89L57.50 11.89L57.50 11.89Q58.22 11.89 58.75 11.59L58.75 11.59L58.75 11.59Q59.27 11.30 59.56 10.68L59.56 10.68L60.39 10.81L60.39 10.81Q60.07 11.68 59.28 12.14L59.28 12.14L59.28 12.14Q58.50 12.61 57.35 12.61L57.35 12.61L57.35 12.61Q56.57 12.61 55.96 12.37L55.96 12.37L55.96 12.37Q55.34 12.14 54.92 11.72L54.92 11.72L54.92 11.72Q54.49 11.29 54.26 10.72L54.26 10.72L54.26 10.72Q54.04 10.15 54.04 9.42L54.04 9.42L54.04 9.42Q54.04 8.68 54.27 8.09L54.27 8.09L54.27 8.09Q54.50 7.50 54.93 7.08L54.93 7.08L54.93 7.08Q55.35 6.65 55.95 6.42L55.95 6.42L55.95 6.42Q56.55 6.19 57.28 6.19L57.28 6.19L57.28 6.19Q58.02 6.19 58.60 6.41L58.60 6.41L58.60 6.41Q59.19 6.63 59.60 7.05L59.60 7.05L59.60 7.05Q60.01 7.48 60.23 8.09L60.23 8.09L60.23 8.09Q60.46 8.70 60.46 9.49L60.46 9.49ZM55.22 9.00L59.36 9.00L59.36 9.00Q59.27 7.96 58.74 7.43L58.74 7.43L58.74 7.43Q58.21 6.90 57.29 6.90L57.29 6.90L57.29 6.90Q56.86 6.90 56.51 7.04L56.51 7.04L56.51 7.04Q56.15 7.19 55.88 7.45L55.88 7.45L55.88 7.45Q55.62 7.72 55.45 8.10L55.45 8.10L55.45 8.10Q55.28 8.48 55.22 9.00L55.22 9.00Z"></path></g><!----><g data-v-423bf9ae="" id="30ae9caa-7dac-4a79-a2d3-2b41d1bc8999" transform="matrix(1.6868707068931876,0,0,1.6868707068931876,-15.555204765500875,-39.02011211305671)" stroke="none" fill="#FFFFFF"><path d="M26.443 71.343a.998.998 0 0 0-1.106-.23l-.565.234-.66-.442v-6.657c0-.452-.304-.848-.74-.966l-2.995-.806-2.321-.623a1.004 1.004 0 0 0-.665.053l-2.458 1.089c-.601.267-.864 1.01-.207 1.725l-.564.14a1 1 0 0 0-.743.796c-.149.839-.149.92-.149 1.005 0 .375.049.558.576.952-.88.66-.951.729-.995.771-.629.612-.356 1.049.794 2.887.348.556.701 1.107.884 1.393l-.005.005-1.959.65c-1.172.39-.716 2.13.456 1.938l2.19-.312a.987.987 0 0 0 .372-.132l2.778-1.661c.095-.058.178-.128.248-.21.09.025.185.039.28.039.073 0 1.208-.243 1.338-.266.276-.032.539-.176.722-.429.684.573.68.633 1.559.499l2.107 1.098 1.842 2.396a1 1 0 0 0 1.56.03l.908-1.09a.999.999 0 0 0-.047-1.332l-2.435-2.544zm.809 4.326l-1.977-2.57-2.591-1.35-.695.104-.775-.648-1.098-.078s.077.598 0 .598-1.226.26-1.226.26l.748-1.09-2.11 1.246.321.155-2.778 1.661-2.19.313 2.19-.728 1.469-1.506-1.042.284s-2.03-3.142-1.95-3.22 1.122-.856 1.122-.856l1.576-.261s-1.977-1.245-1.977-1.323.134-.831.134-.831l1.149-.286.027.571s.508.078.588.078.294-.754.294-.754-.481-.207-.508-.285-.134-.727-.134-.727l-.481-.52 2.457-1.09 2.321.623 2.995.805v7.191l1.549 1.037 1.06-.44 2.439 2.544-.907 1.093zm4.621-7.179h-.508a1 1 0 0 0-1 1v.362a1 1 0 0 0 1 1h.508a1 1 0 0 0 1-1v-.362a1 1 0 0 0-1-1zm0 1.364h-.508v-.363h.508v.363zm9.142 3.672a.997.997 0 0 0-.502-.637 34.93 34.93 0 0 0-1.262-.646.999.999 0 0 0-.539-.995c-.455-.233-1.078-.671-1.583-.589l-.758-.269a1.007 1.007 0 0 0-.584-.024l-.315-.415a1.001 1.001 0 0 0-.797-.396h-.374a1 1 0 0 0-1 1v.338a1 1 0 0 0 .796.979c.208.043.813.191 1.024.174.124.283.375.498.681.572.219.645.833.848 1.326.656.144.099.31.155.461.17-.235.349-.251.806.065 1.213-.113.726-.266 1.281.44 1.643 1.014.519 1.477.595 1.952-.375.623-.163.525-.114 1.219-.679.504-.411.572-1.185-.25-1.72zm-6.711-2.635v-.336h.374l.374.492-.748-.156zm2.463 1.452l-.155-.448.309.33-.154.118zm-.727-.698v-.313l.882.313h-.882zm1.656.805c-.198-.386-.068-.248-.534-.572l.134-.234.962.494-.562.312zm2.457 2.414l-.801.208-.294.597-.508-.26.16-1.025-.294-.377.508-.312-.214-.597c.107.025 1.336.674 1.336.674v.313l.588.387-.481.392zm49.945-44.038l-2.388-4.563a.998.998 0 0 0-1.003-.529l-1.859.219a1 1 0 0 0-.871.84l-.664 4.284-.574.712-1.965.526-2.803.409a1 1 0 0 0-.67.408l-1.438 2.014c-.306.426-.165.788-.055 1.296l-.436.372c-.533-.204-.891-.441-1.406-.069l-1.125.808c-.38.272-.551.777-.289 1.305l-3.703 2.758-.104-.043.18-4.208a1 1 0 0 0-.816-1.026l-.006-.022-.451-1.344a.99.99 0 0 0-.436-.541l-3.408-2.031a.99.99 0 0 0-.289-.116l-1.371-.312a.998.998 0 0 0 .049-.477c-.096-.669-1.185-1.325-1.883-.91l-.803.473a1 1 0 0 0-.963-1.268h-2.45l-2.971-1.064-.496-.905c-.378-.691-1.402-.775-1.855.218l-33.158-4.707a1.002 1.002 0 0 0-1.132 1.126l-1.026-.686a1 1 0 0 0-1.555.793l-.158 4.153-2.613 5.704a1 1 0 0 0-.09.369l-.146 3.053-.911 1.221c-.137.184-.207.41-.198.639l.129 3.097c.003.08.016.158.038.235.829 2.882 2.06 7.177 2.295 8.045-.032.252-.105.779-.17 1.233-.064.447.181.883.597 1.061l1.542.659 2.17 2.33.157 1.442c.051.467.42.834.887.886l3.442.372 5.003 3.775c.137.104.299.17.47.193l4.437.594a.996.996 0 0 0 1.031-.553l.016-.032h1.429c1.307 1.415 1.954 2.095 2.296 2.435a9.584 9.584 0 0 1-.065.819c-.04.326.083.65.328.868l1.937 1.725a.999.999 0 0 0 1.514-.219l.569-.916 1.156.088 3.26 5.873a1 1 0 0 0 .472.43c3.182 1.397 3.229 1.397 3.489 1.397a.999.999 0 0 0 .996-1.091l-.238-2.598c3.055-2.279 4.49-3.352 5.18-3.904.802.117 2.809.438 3.977.624 1.699.271 1.699.271 1.8.271a.987.987 0 0 0 .521-.132l.174.121a1.002 1.002 0 0 0 .707.167l.45-.063a1 1 0 0 0 .644-1.614 35.654 35.654 0 0 0-.554-.685c.022-.064.047-.131.071-.196a909.4 909.4 0 0 0 3.781-.567l1.078 1.104a1 1 0 0 0 1.254.143l1.401-.893c.433.315 1.085.797 1.741 1.279-.075 1.154-.057 1.243-.031 1.369.102.492 3.893 5.754 3.928 5.786.187.183.453.288.715.288.308 0 1.519-.574 1.57-.598.985-.294.753-1.624.74-4.185 0-.34 0-.348-3.619-7.122l3.081-5.844c1.188-.282 1.204-.305 1.458-1.5l2.328-2.857c.234-.289.291-.684.145-1.025l-.955-2.221c.19-.273.876-3.356.886-3.58.383-.308.398-.828.493-1.338.668.186 1.203-.164 1.317-1.534l2.024-2.089a1 1 0 0 0 .203-1.083l1.211-.766a1 1 0 0 0 .451-1.013l-.512-3.008 3.276-3.181c.315-.308.393-.789.188-1.181zm-6.743 3.659l.39-1.014-.222-1.066.108-.134 1.493 3.91-.514.516-1.256.308.001-2.52zm-.275-1.753l.145.7-.353.917-.017 2.779-.498.123-.276-1.283-.438-1.038v-.704l-.429-.995 1.866-.499zm1.186 5.928l.289.719-1.818 1.253-.258-.522-.022-.98c.32-.092 1.09-.289 1.809-.47zm.49-.123l.111-.028.428.401-.311.197-.228-.57zm-10.949.632l-.384-.804 1.125-.808s.836.364 1.029.364a.07.07 0 0 0 .032-.006c.096-.063 1.3-1.102 1.3-1.102l-.235-1.085 1.438-2.014 2.604-.38.425.947v.701l.465 1.137.313 1.467.032 1.367v.006l.028 1.219.34.734-.152.103-1.494-.62-.578.342-.4-1.145-.615.07-.322-.094c-.671.037-1.421.072-1.47.075-.09-.025-.138-.038-4.373.981l-.363-.52 1.255-.935zm7.026 5.974l-1.015-.628-.321-.409s1.046-.991 1.067-1.001l.551.531-.282 1.507zm-9.886 9.825l1.836-.199.876.727 1.351-.282 1.782 1.349-2.248 4.264-4.071-4.736-.52-.271.994-.852zm-.819 1.486l4.165 4.846-.85 1.611h-.992v.563l-.087-.071-3.962.338-.23-.326-.262-2.635-.985-2.946-.418-1.9 2.806-.225-.27.23 1.085.515zM62.674 62.6v-6.364l3.33-.265.439 1.994.979 2.916.233 2.398-4.23.441.486 1.416c-.305.045-.609.092-.906.135l-.331-2.671zm-3.033-6.623l.073-.492.39-.627.254-1.18 1.557-.176.385-.313 8.672-.955-.396.668h-.386l-2.715 2.449-7.834.626zm-1.745 2.041l-.277 1.891.081.287h-3.964v-.778l-.704-.21-.002-3.39-.21-1.841c.847-.051 3.957-.116 6.132-.151l.038.042-.901.798 1.396.243-.221.355-.147.863-.562.547v.797l-.659.547zm-17.602-4.694l.018-.62h1.315c.671.042 7.391.223 10.579.307l.089.775.236 2.061v3.088l-.565-.365-2.07.439-.953-.434-1.149.177-.448-.552-1.469-.273-.156-.332-1.016-.261v-4.01h-4.411zm-17.741-1.96s-.139 1.173-.194 1.652l-5.658-8.611 1.143-5.376c4.24.963 6.784 1.533 7.586 1.701l-2.042 10.794-.154-.16h-.681zm.168-16.55l1.556-2.066-.624-.776 1.414-6.574.505.072-.459 3.223.554 1.325.969 1.617-.574 1.92.425.837.632-.622.069.11.701 2.59.993-.348 1.302.228-.578 4.548c-1.503-.247-3.751-.613-3.858-.613-.135-.019-1.774-.385-3.728-.824l1.18-4.167-.479-.48zm25.981-3.629c.032.092.229.498.313.673l.317 2.934-9.047-.411c.193-3.03.368-5.786.428-6.761l7.969 1.131c-.025.664-.018 2.317.02 2.434zm6.192 4.332l.526-.569.147-1.245 1.361-.649.125.611.469-.277v.415l.645.501 1.676.563.949.179v.789c0 .106.001.175.467.517l-.441.932 1.342-1.449s-.917 4.607-.896 4.639c.006.011.142.318.316.718l-3.691.323-.203-.262-.289-.236-.225-1.18-.298-.241.317-.619-.151-.128c-1.313-1.103-1.848-1.488-1.848-1.488s-.257-.538-.318-.837l.272-.33-.252-.677zm7.406 4.822l.13-.686c.008.031.014.063.021.095.056.261.109.501.146.679l-.133.286c-.068-.156-.12-.278-.164-.374zm3.371 2.161l.58 5.521-.612.216-.832 1.618-1.297.456-.587-.369-.668.492v-.436l.704-1.269-.279-.595s.021-5.569.034-5.598l2.957-.036zm1.057 5.267l.358.079.328.559 1.146.281.633-.362.494.311v.603l.832 1.126-1.75 1.613-6.671.736-.386.312-.764.086c.032-.074.067-.156.104-.252l.047-.117-.301-.479.076-.062.574.18.747-1.278.75-.553.502.315 1.714-.603.832-1.618.798-.282-.063-.595zm12.316-7.588l.308 1.755.846.814-1.157 1.104-6.408 1.368-.298-1.186c-.018-.137-.1-.725-.496-3.399l.311-.231.551.787.166-.04c1.622-.391 4.092-.978 4.352-1.021.125.008.463-.003 1.518-.062l.307.111zm-.196 7.005l-.594.003a12.48 12.48 0 0 1-.582-.13l.297-.753s-.517-.396-.637-.481l.51-.44-.275-.705 1.106-.236-.282.748.457 1.994zm-1.777-2.4l.176.451-.416.359a.314.314 0 0 1-.028-.004l-.55-.631.818-.175zm-2.493.532l-.391.341-.045-.248.436-.093zm-2.577.663l.13-.7.133.531 1.391-.297.197 1.101 1.101-.96.269-.042-.179.891c-.248.324-.535.683-.685.848a11.836 11.836 0 0 0-.461-.19l-.271-.108-.563 2.479-1.621.889-.422-.221-.834-1.127v-.539l.33-1.123 1.485-1.432zm-12.308 8.459l-.496-.088.507-.447-.538-.581-.111.002c-4.162.067-5.697.112-6.291.165l-.084-.737v-4.364l-.084-.075a8.86 8.86 0 0 1-.652-.626v-.562l-.332-.539-.252-.727 4.937-.124c.086.091.204.21.291.282.03.12.065.433.089.627.055.467.07.575.129.66.029.044.092.134 1.002.671l.297 1.493.449-.437.125.16-.398.934 1.392 1.22.284 1.109h.376l.211.335a2.997 2.997 0 0 1-.19.386l-.412.047-.249 1.216zM29.844 42.97l.862-6.774.129-.464 8.801.946-.473 7.407-9.319-1.115zm10.034-2.237c2.794.105 6.768.26 7.226.291.104.108.66 1.012.66 1.012s.809-.506.942-.581c.144.069.474.269.763.456l1.562 4.503-8.926-.043.08-1.951-2.526-.279.219-3.408zm2.207 6.137l9.147.044.211.349v.491c0 .106 0 .198.736.858v3.896c-2.807-.074-9.06-.244-10.313-.293l.219-5.345zm20.09-4.315l.005 5.636.219.52-.645 1.159v.992l-.538.922-.448-.141-.39.313h-.037l-.228-.883-1.235-1.083.371-.871-.646-.836-.191.187-.161-.812-.099-.057a16.154 16.154 0 0 1-.926-.577c-.018-.092-.039-.287-.058-.436-.042-.368-.071-.58-.108-.715l.736-1.301-.129-.134a2.462 2.462 0 0 1-.264-.32c.072-.095.156-.22.22-.315h.729l.48-1.063-.583-.756 3.54-.31c.137.307.273.621.386.881zm-5.702-2.643l.244.198.225 1.186.369.287.945 1.226-.224.494h-.681l-.074.116a4.74 4.74 0 0 1-.315.453c-.171.167-.106.403.22.774l-.457.811c-.047-.048-.096-.097-.14-.145l-.077-.083-5.318.133-1.269-3.674-.214-1.333.104-.443h6.662zm-7.112-3.447v3.168l-.165.705.144.9c-.556-.339-.647-.319-.735-.288-.071.022-.297.153-.673.388-.461-.751-.605-.782-.688-.8-.139-.029-4.542-.199-7.335-.305l.342-5.352 8.979.408c-.146.334-.223.562-.223.669.002.205.189.387.354.507zm-9.693-.287l-9.2-.989-.188.671-1.443-.253-.608.213-.57-2.106-.452-.734-.585.577-.024-.05.58-1.939-1.066-1.773-.485-1.167.439-3.086 14.151 2.009c-.068 1.086-.311 4.901-.549 8.627zm-13.745 4.635c.595.088 2.315.368 3.619.582l-.257 1.994 2.785.436-.985 7.338-6.905-1.136 1.743-9.214zm6.643 3.077l6.976.74 2.124.235-.301 7.34h-1.286l-8.499-.972.986-7.343zM71.2 51.708l-1.593.176 1.287-1.187.556.29 2.053-1.125.481-2.127c.121.049.242.101.281.121.207.132.283.124 1.211-1.096l.196-.858c.771.14 1.058.185 1.177.198.082.049.303.208.517.37-.091.229-.233.86-.233.86.057.098 1.073.351 1.073.351h.769l.467 1.848.334.78-8.576 1.399zm8.536-2.678l-.297-1.833-.75-1.433.246-.574.604 1.719.735-.192-.538 2.313zm.707-3.042l-.043.178-.545.143-.594-1.694.191.243.486.307.505.823zm-11.459-3.229l2.397-1.785.457 3.087a103.7 103.7 0 0 1-.301 1.67l-1.465 1.412-.284.965-.585-.369-.72.413-.746-.184-.332-.564-.735-.162-.499-4.75 1.544-.019.3-.123.969.409zM60.82 31.446l.384.188-1.313 1.181.93-.119 2.474.563 3.408 2.031.45 1.344s-.846 1.783-.719 1.783c.002 0 .006 0 .008-.002.164-.063 1.481-1.094 1.481-1.094l-.198 4.625-4.775.087c.328-.7.691-1.476.691-1.495 0-.034-.563-2.587-.584-2.749s1.272-3.17 1.272-3.17c-.063.049-2.502.536-2.502.536l-.347.733a3.896 3.896 0 0 1-.187-.148v-1.11l-1.323-.248-1.529-.5-.416-.324v-.465l2.795-1.647zm-9.447-2.313l.378-.832.679 1.238 3.492 1.25h2.625l-1.619.875-1.193 1.406-.629.3-.159 1.356-.626.677.259.693-.238.29.487 1.31s.986.775 1.74 1.405l-.159.309h-6.547v-3.219l-.118-.074c-.104-.063-.22-.157-.235-.149.013-.093.181-.492.33-.808l.029-.063-.383-3.42c0-.001-.273-.561-.3-.622-.022-.167-.025-1.689-.014-2.236l2.201.314zm-36.472-4.531l2.058 1.375.064 1.438.836-1.281-.386-1.813 7.097 1.007L23.2 31.7l-2.077-.785-3.076.004-1.875-.336v-.984l-1.426-.937.155-4.06zm-.272 4.582l1.042.684v1.133l2.331.414h3.028l2.199.832.413.511-1.583 2.104.578.579-1.107 3.91c-1.283-.289-2.655-.6-3.803-.861l-5.775-1.871.085-1.782 2.592-5.653zm2.716 26.741l-2.54-2.729-1.736-.743s.193-1.351.193-1.444c0-.095-2.347-8.25-2.347-8.25l-.129-3.097 1.093-1.466.051-1.059 5.431 1.759-1.193 5.609 6.103 9.288a7.192 7.192 0 0 0-.034.342c0 .053 0 .137.458 1.229l-.363.286-1.165 1.802.536.456-.026.061-.477-.148-.293.242-3.369-.364-.193-1.774zm4.503 2.622l.461-.778-.487-.414.853-1.338.629-.496s-.548-1.323-.567-1.379c.005-.104.15-1.347.26-2.277l.702.71.389-2.056 6.932 1.14c-.584 4.362-1.213 9.083-1.432 10.799l-3.11-.416-4.63-3.495zm9.355 3.494l-.289.595-.832-.111c.208-1.622.814-6.176 1.433-10.797l8.297.949-.025.885-.653 8.42-5.715-.627.062.687-2.278-.001zm16.721 9.345l.289 3.155c-.096 0-3.087-1.313-3.087-1.313l-3.521-6.344-2.299-.176-.889 1.432-1.937-1.725s.165-1.344 0-1.438c-.129-.073-1.765-1.834-2.466-2.592l-.042-.469 5.621.616.675-8.71h3.938v3.896l1.162.299.165.353 1.541.286.513.632 1.286-.196.967.438 2.029-.433.777.504.59.188v2.885l.486.473.461 1.146-.414 1.356.129.434-.36 1.098c-1.269.962-5.614 4.205-5.614 4.205zm13.269-3.375l-1.115-.771s-.086.604-.15.604c-.057 0-4.666-.75-5.785-.906l.278-.846-.13-.438.421-1.382-.545-1.357-.431-.447v-1.769h4.104l.34 1.211-.517.808-.495 1.91h2.896l-.049.494.978 1.009c-.136.366-.265.767-.229.777.064.021.879 1.042.879 1.042l-.45.061zm.065-2.481c-.01 0-.031.039-.058.092l-.664-.686.081-.813H57.81l.297-1.175.613-.963-.592-2.111.234-1.596.689-.573v-.82l.402-.394 2.718-.218.002 6.355.337 2.715a57.21 57.21 0 0 1-1.252.187zm15.863 4.606c0 .063.021 3.25-.064 3.271-.08.021-1.09.546-1.246.546-.008 0-.015-.001-.019-.005-.063-.063-3.623-5.167-3.644-5.271-.021-.104.086-1.646.086-1.646s-2.704-2-2.735-2c-.03 0-1.981 1.25-1.981 1.25l-1.436-1.471-1.665.252-.312-.907 3.705-.388.352.496 4.044-.347.747.612V63.41h.609c.759 1.424 3.559 6.671 3.559 6.726zm3.473-17.92l-2.48 3.043-.178.834-.711.168-2.095-1.584-1.339.277-.854-.706-2.198.237-.781.669-1.668.133 2.088-1.884h.479l.742-1.256 8.299-1.354.074-.022.622 1.445zm1.693-9.509l-.086 1.01-1.564-1.428-.375-1.072.448-.265 1.515.626 1.963-1.321c.143.035.371.105.371.105l-2.272 2.345zm3.445-4.073l-.723-.675s-2.166.538-2.566.658l-.02-.867.741-.184 1.702-.419.515-.517.476-.026.299 1.76-.424.27zm-.175-3.796l.215 1.271-.137.008-1.64-4.294.263-.326.706-4.55 1.859-.219 2.387 4.563-3.653 3.547z"></path></g><!----></svg>