<svg width="24" height="25" viewBox="0 0 24 25" fill="none" xmlns="http://www.w3.org/2000/svg">
<path fill-rule="evenodd" clip-rule="evenodd" d="M6.81455 7.11046C6.42402 7.50514 6.42402 8.14504 6.81455 8.53972L10.5858 12.3511L6.81455 16.1624C6.42402 16.5571 6.42402 17.197 6.81455 17.5917C7.20507 17.9864 7.83824 17.9864 8.22876 17.5917L12 13.7803L15.7712 17.5917C16.1618 17.9864 16.7949 17.9864 17.1854 17.5917C17.576 17.197 17.576 16.5571 17.1854 16.1624L13.4142 12.3511L17.1854 8.53972C17.576 8.14504 17.576 7.50514 17.1854 7.11046C16.7949 6.71578 16.1618 6.71578 15.7712 7.11046L12 10.9218L8.22876 7.11046C7.83824 6.71578 7.20507 6.71578 6.81455 7.11046Z" fill="white" style="mix-blend-mode:color-burn"/>
<path fill-rule="evenodd" clip-rule="evenodd" d="M6.81455 7.11046C6.42402 7.50514 6.42402 8.14504 6.81455 8.53972L10.5858 12.3511L6.81455 16.1624C6.42402 16.5571 6.42402 17.197 6.81455 17.5917C7.20507 17.9864 7.83824 17.9864 8.22876 17.5917L12 13.7803L15.7712 17.5917C16.1618 17.9864 16.7949 17.9864 17.1854 17.5917C17.576 17.197 17.576 16.5571 17.1854 16.1624L13.4142 12.3511L17.1854 8.53972C17.576 8.14504 17.576 7.50514 17.1854 7.11046C16.7949 6.71578 16.1618 6.71578 15.7712 7.11046L12 10.9218L8.22876 7.11046C7.83824 6.71578 7.20507 6.71578 6.81455 7.11046Z" fill="white" fill-opacity="0.6"/>
<mask id="mask0" style="mask-type:alpha" maskUnits="userSpaceOnUse" x="1" y="1" width="22" height="22">
<path fill-rule="evenodd" clip-rule="evenodd" d="M6.81455 7.11046C6.42402 7.50514 6.42402 8.14504 6.81455 8.53972L10.5858 12.3511L6.81455 16.1624C6.42402 16.5571 6.42402 17.197 6.81455 17.5917C7.20507 17.9864 7.83824 17.9864 8.22876 17.5917L12 13.7803L15.7712 17.5917C16.1618 17.9864 16.7949 17.9864 17.1854 17.5917C17.576 17.197 17.576 16.5571 17.1854 16.1624L13.4142 12.3511L17.1854 8.53972C17.576 8.14504 17.576 7.50514 17.1854 7.11046C16.7949 6.71578 16.1618 6.71578 15.7712 7.11046L12 10.9218L8.22876 7.11046C7.83824 6.71578 7.20507 6.71578 6.81455 7.11046Z" fill="white"/>
</mask>
<g mask="url(#mask0)">
</g>
</svg>
