<svg width="24" height="24" viewBox="0 0 24 24" fill="none" xmlns="http://www.w3.org/2000/svg">
<path d="M12 1.11361L13.9303 3.23222L14.2541 3.58765L14.7122 3.44175L17.4432 2.57211L18.0555 5.37201L18.1583 5.84173L18.628 5.94446L21.4279 6.55681L20.5582 9.28777L20.4124 9.74592L20.7678 10.0697L22.8864 12L20.7678 13.9303L20.4124 14.2541L20.5582 14.7122L21.4279 17.4432L18.628 18.0555L18.1583 18.1583L18.0555 18.628L17.4432 21.4279L14.7122 20.5582L14.2541 20.4124L13.9303 20.7678L12 22.8864L10.0697 20.7678L9.74592 20.4124L9.28777 20.5582L6.55681 21.4279L5.94446 18.628L5.84173 18.1583L5.37201 18.0555L2.57211 17.4432L3.44175 14.7122L3.58765 14.2541L3.23222 13.9303L1.11361 12L3.23222 10.0697L3.58765 9.74592L3.44175 9.28777L2.57211 6.55681L5.37201 5.94446L5.84173 5.84173L5.94446 5.37201L6.55681 2.57211L9.28777 3.44175L9.74592 3.58765L10.0697 3.23222L12 1.11361Z" fill="#033DDD" stroke="white" stroke-width="1.5"/>
<path d="M16 9.70001L10.5 15.3L8 12.7546" stroke="white" stroke-width="1.5" stroke-linecap="round" stroke-linejoin="round"/>
</svg>
