<svg width="36" height="36" viewBox="0 0 36 36" fill="none" xmlns="http://www.w3.org/2000/svg">
<path d="M15.4337 25.5872L0.131339 34.1719C0.0443929 33.9059 6.61825e-05 33.6278 0 33.348L0 16.9571C0 16.9477 0 16.9387 0 16.9293L15.4337 25.5872Z" fill="#FF4C44"/>
<path d="M22.0992 18.0842C22.1049 18.6257 22.0031 19.163 21.7996 19.665C21.5961 20.167 21.2951 20.6236 20.9139 21.0086C20.5327 21.3935 20.0789 21.6991 19.5787 21.9077C19.0786 22.1163 18.542 22.2236 18 22.2236C17.4581 22.2236 16.9215 22.1163 16.4213 21.9077C15.9212 21.6991 15.4674 21.3935 15.0862 21.0086C14.705 20.6236 14.4039 20.167 14.2005 19.665C13.997 19.163 13.8952 18.6257 13.9009 18.0842H22.0992Z" fill="#FF4C44"/>
<path d="M14.3565 16.5668C14.8905 16.5668 15.3235 16.1341 15.3235 15.6004C15.3235 15.0666 14.8905 14.634 14.3565 14.634C13.8224 14.634 13.3894 15.0666 13.3894 15.6004C13.3894 16.1341 13.8224 16.5668 14.3565 16.5668Z" fill="#FF4C44"/>
<path d="M21.6431 16.5668C22.1772 16.5668 22.6101 16.1341 22.6101 15.6004C22.6101 15.0666 22.1772 14.634 21.6431 14.634C21.109 14.634 20.676 15.0666 20.676 15.6004C20.676 16.1341 21.109 16.5668 21.6431 16.5668Z" fill="#FF4C44"/>
<path d="M9.59362 19.4325C9.2029 18.4088 9.0032 17.3221 9.0044 16.2264C9.0044 11.2614 13.0318 7.23672 18.0002 7.23672C22.9686 7.23672 26.9961 11.2614 26.9961 16.2264C26.9972 17.322 26.7973 18.4085 26.4064 19.4321L34.8252 14.7094L19.8102 0.712917C19.3189 0.254896 18.6719 0.000183105 18 0.000183105C17.3281 0.000183105 16.6812 0.254896 16.1898 0.712917L1.17487 14.7094L9.59362 19.4325Z" fill="#FF4C44"/>
<path d="M2.1059 35.9428C2.28599 35.9811 2.46963 36.0002 2.65374 35.9999H33.3462C33.5295 35.9999 33.7124 35.9809 33.8918 35.9433C29.9111 33.7143 21.3484 28.9183 17.9777 27.0395L2.1059 35.9428Z" fill="#FF4C44"/>
<path d="M36 33.348V16.9571C36 16.9477 36 16.9387 36 16.9293L17.9777 27.0395C21.3485 28.9183 29.9112 33.7143 33.8918 35.9433C34.4877 35.8177 35.0222 35.4913 35.406 35.0189C35.7898 34.5464 35.9995 33.9565 36 33.348V33.348Z" fill="#FF4C44"/>
</svg>
