<?xml version="1.0" encoding="UTF-8"?>
<!-- Created with Inkscape (http://www.inkscape.org/) -->
<svg width="160" height="50" version="1.1" viewBox="0 0 42.333 13.229" xmlns="http://www.w3.org/2000/svg">
 <g>
  <path d="m39.549 6.2997v0.61803h0.70031v-0.61803zm1.3473 0.25375v0.72636h-0.27284v0.55259h0.27284v1.1884c-2e-6 0.3109 0.06248 0.53046 0.18782 0.65874 0.12656 0.12828 0.31881 0.19268 0.57684 0.19268 0.1155 0 0.21336-0.0072 0.29323-0.02073 0.07987-0.01207 0.15528-0.02935 0.22654-0.05199v-0.55912h-0.05532c-0.02211 0.01509-0.06141 0.0317-0.11793 0.04981-0.05529 0.01811-0.10012 0.02727-0.13453 0.02727-0.08355 0-0.14737-0.01525-0.1916-0.04545-0.043-0.0317-0.07307-0.07369-0.09027-0.12651-0.01843-0.05282-0.02818-0.11246-0.0294-0.17886-0.0013-0.066406-2e-3 -0.14435-2e-3 -0.2334v-0.90086h0.6211v-0.55259h-0.62112v-0.72636zm-1.329 0.72636v2.5426h0.66362v-2.5426zm-0.91608 2.0784c-0.03932 0-0.08098 0.0271-0.12521 0.08144-0.04423 0.05434-0.06639 0.10585-0.06639 0.15414 0 0.04678 0.02216 0.09794 0.06639 0.15378 0.04423 0.05434 0.08589 0.08144 0.12521 0.08144 0.03809 0 0.07923-0.0271 0.12346-0.08144 0.04546-0.05584 0.06813-0.10699 0.06813-0.15378 0-0.0483-0.02268-0.09981-0.06813-0.15414-0.04423-0.05434-0.08537-0.08144-0.12346-0.08144z" fill="#333" style="font-variant-caps:normal;font-variant-east-asian:normal;font-variant-ligatures:normal;font-variant-numeric:normal"/>
  <path d="m17.722 4.15v5.7711h1.2733v-1.8801h0.79258c0.36036-2e-7 0.66122-0.058219 0.9022-0.1745 0.24319-0.11628 0.46291-0.28804 0.65967-0.51543 0.1437-0.16795 0.2544-0.37475 0.33178-0.62022 0.07738-0.24805 0.11593-0.50123 0.11593-0.75962 0-0.33332-0.05298-0.61864-0.1591-0.85635-0.10391-0.23772-0.25504-0.43268-0.45401-0.58513-0.16581-0.12661-0.35716-0.22107-0.57382-0.28308-0.21445-0.064597-0.47864-0.096731-0.79258-0.096731zm13.547 0.17402v1.2442h-0.49087v0.94597h0.49087v2.0347c0 0.53228 0.11306 0.90842 0.33857 1.1281 0.22771 0.21963 0.57374 0.32907 1.038 0.32907 0.20782 0 0.38355-0.01136 0.52725-0.03461 0.1437-0.02067 0.27922-0.05038 0.40744-0.08914v-0.95736h-0.09943c-0.0398 0.02584-0.11027 0.05435-0.21197 0.08535-0.09949 0.03101-0.18014 0.04647-0.24204 0.04647-0.15034 0-0.26528-0.02609-0.34487-0.07776-0.07738-0.05426-0.13154-0.12626-0.1625-0.2167-0.03316-0.090437-0.05115-0.19262-0.05335-0.30632-0.0023-0.11369-0.0034-0.2468-0.0034-0.39925v-1.5425h1.1176v-0.94597h-1.1176v-1.2442zm-12.273 0.9033h0.21876c0.21003 0 0.37844 0.0041 0.50446 0.011854 0.12602 0.00517 0.25539 0.038511 0.38804 0.10052 0.09949 0.04651 0.18676 0.12913 0.26193 0.24799 0.07517 0.11628 0.11253 0.25591 0.11253 0.41869 0 0.16537-0.01868 0.30621-0.05626 0.42249-0.03537 0.11369-0.09379 0.21178-0.17559 0.29446-0.09506 0.09302-0.21357 0.15487-0.35506 0.18588-0.13928 0.031007-0.31738 0.046943-0.53404 0.046943h-0.36476zm17.138 0.20532c-0.65661 0-1.1741 0.2109-1.5522 0.63207-0.37584 0.41859-0.56363 0.9868-0.56363 1.7051 0 0.72608 0.19916 1.2853 0.5971 1.6781 0.39795 0.39275 0.97032 0.5894 1.7176 0.5894 0.28962 0 0.55381-0.02851 0.79258-0.08535 0.23877-0.05684 0.49278-0.14841 0.7625-0.27502v-1.1205h-0.13242c-0.13707 0.12144-0.32368 0.23546-0.56024 0.3414-0.23656 0.10594-0.48089 0.15885-0.73292 0.15885-0.39794 0-0.69999-0.09035-0.90559-0.27123-0.20339-0.18087-0.3136-0.44178-0.33129-0.78286h2.7323v-0.4884c0-0.67181-0.15231-1.1864-0.4574-1.543-0.30509-0.35916-0.76063-0.53866-1.3664-0.53866zm-11.988 0.011854c-0.28519 0-0.57044 0.026822-0.85563 0.081084-0.28298 0.051678-0.48758 0.096855-0.61359 0.13561v1.0508h0.10962c0.09727-0.043926 0.2574-0.10625 0.48069-0.18635 0.22329-0.082685 0.43332-0.12376 0.63008-0.12376 0.3272 0 0.5746 0.046386 0.74262 0.13941 0.16802 0.090437 0.25223 0.25568 0.25223 0.49598v0.023234c-0.35152 0.023255-0.69093 0.059491-1.0181 0.10859-0.3272 0.049094-0.60108 0.13172-0.82216 0.24799-0.22329 0.11628-0.39596 0.27547-0.51755 0.47702-0.1216 0.20154-0.18238 0.46124-0.18238 0.77906 0 0.39792 0.1192 0.72478 0.35797 0.98059 0.23877 0.25581 0.53537 0.38361 0.8891 0.38361 0.15034 0 0.28822-0.01546 0.41424-0.04647 0.12602-0.02843 0.24759-0.0736 0.36476-0.13561 0.08401-0.04651 0.17365-0.11004 0.26872-0.19014 0.09506-0.0801 0.17453-0.14847 0.23865-0.20532v0.46137h1.184v-2.9612c3e-6 -0.52195-0.15113-0.90461-0.45401-1.1475-0.30067-0.24547-0.79051-0.36796-1.4692-0.36796zm4.689 0.00379c-0.58807 0-1.0521 0.13963-1.3926 0.41869-0.33826 0.27648-0.50737 0.62364-0.50737 1.0422 0 0.32557 0.08135 0.59832 0.24495 0.81795 0.1636 0.21705 0.41455 0.37745 0.7528 0.48081 0.12381 0.038759 0.26099 0.072101 0.41132 0.10052 0.15254 0.025839 0.27293 0.050715 0.36136 0.073971 0.18571 0.043926 0.31202 0.090313 0.37834 0.13941 0.06632 0.04651 0.09943 0.12261 0.09943 0.22855 0 0.11886-0.05653 0.20921-0.16928 0.27123-0.11275 0.05943-0.28612 0.08915-0.52046 0.08915-0.17907 0-0.347-0.02077-0.50397-0.06212-0.15696-0.04392-0.2977-0.09515-0.42151-0.15458-0.1437-0.06718-0.2551-0.1295-0.33469-0.18635-0.07738-0.05943-0.14597-0.11355-0.20566-0.16264h-0.10962v1.147c0.1636 0.08785 0.38026 0.16806 0.64997 0.24041 0.26972 0.07235 0.57058 0.10858 0.9022 0.10858 0.59913 0 1.071-0.13674 1.4159-0.41063 0.34488-0.27648 0.51755-0.63957 0.51755-1.0892 0-0.30748-0.07521-0.56356-0.22555-0.76768-0.15034-0.20671-0.3826-0.3577-0.69654-0.45331-0.14149-0.041342-0.28293-0.07516-0.42442-0.101-0.13928-0.028423-0.26984-0.056454-0.39144-0.084877-0.22108-0.054262-0.36133-0.10885-0.42103-0.16312-0.05969-0.054262-0.08973-0.13278-0.08973-0.23614 0-0.11369 0.06553-0.20163 0.19596-0.26364 0.13265-0.062014 0.29514-0.092938 0.48748-0.092938 0.23213 0 0.46085 0.045177 0.68635 0.13561 0.22771 0.087853 0.42994 0.20261 0.6068 0.34472h0.10283v-1.1006c-0.14371-0.074933-0.34356-0.14499-0.60002-0.20958-0.25424-0.067181-0.5208-0.10052-0.79937-0.10052zm7.203 0.85635c0.24761 0 0.42997 0.073682 0.54714 0.22096 0.11717 0.14728 0.17866 0.36712 0.18529 0.6591h-1.5483c0.01768-0.30748 0.10022-0.53095 0.24835-0.67048 0.14812-0.13953 0.33759-0.20958 0.56751-0.20958zm-11.153 1.5738v0.90709c-0.09286 0.09302-0.20118 0.16791-0.32499 0.22476-0.12159 0.05685-0.24198 0.08535-0.36136 0.08535-0.15034 0-0.26055-0.01183-0.33129-0.03509-0.07074-0.02584-0.13202-0.06449-0.18287-0.11617-0.05306-0.05168-0.08617-0.10627-0.09943-0.16312s-0.01989-0.13005-0.01989-0.22049c0-0.13695 0.03123-0.24686 0.09313-0.32955 0.06411-0.085269 0.15564-0.15001 0.27502-0.19394 0.09727-0.036175 0.2399-0.067099 0.42782-0.092938 0.18792-0.028423 0.36247-0.050406 0.52386-0.06591z" fill="#d40000" style="font-variant-caps:normal;font-variant-east-asian:normal;font-variant-ligatures:normal;font-variant-numeric:normal"/>
  <path d="m1.6694 4v1.0824h1.1465v2.3431c0 0.23972-0.00361 0.43773-0.010329 0.59316-0.00673 0.15279-0.035495 0.29343-0.087055 0.42251-0.053802 0.13171-0.1447 0.23466-0.27248 0.30842-0.12554 0.07376-0.30613 0.1107-0.54152 0.1107-0.18158 0-0.33051-0.01995-0.44708-0.05946-0.11657-0.042149-0.22881-0.086974-0.33642-0.13439h-0.12099v1.1936c0.15468 0.03688 0.33407 0.06422 0.53807 0.08267 0.204 0.02108 0.42128 0.03191 0.65218 0.03191 0.34074 0 0.62687-0.04483 0.85777-0.13439 0.2309-0.0922 0.42804-0.22126 0.59168-0.38722 0.15468-0.15543 0.27124-0.34508 0.3497-0.56899 0.078461-0.22655 0.11755-0.4689 0.11755-0.72706v-4.1569zm12.65 0.17742v1.2685h-0.49774v0.96442h0.49774v2.0744c0 0.54266 0.11416 0.92614 0.34281 1.1501 0.2309 0.22391 0.58177 0.33549 1.0525 0.33549 0.21072 0 0.38892-0.01158 0.53463-0.03529 0.14572-0.02108 0.28362-0.05137 0.41364-0.09088v-0.97603h-0.10083c-0.04035 0.02634-0.11231 0.0554-0.21543 0.08702-0.10088 0.03161-0.18266 0.04737-0.24543 0.04737-0.15244 0-0.269-0.02659-0.3497-0.07928-0.07846-0.05532-0.13338-0.12872-0.16477-0.22092-0.03363-0.0922-0.05137-0.19638-0.05361-0.31229-0.0023-0.11591-0.0034-0.25162-0.0034-0.40704v-1.5726h1.1332v-0.96442h-1.1332v-1.2685zm-2.4685 1.1462c-0.5963 0-1.0668 0.14236-1.4121 0.42686-0.34299 0.28187-0.51447 0.6358-0.51447 1.0626 0 0.33192 0.08298 0.60998 0.24887 0.8339 0.16589 0.22128 0.42035 0.38482 0.76334 0.49019 0.12554 0.039514 0.26464 0.073508 0.41708 0.10248 0.15468 0.026343 0.27675 0.051705 0.36642 0.075413 0.18831 0.044783 0.31589 0.092074 0.38314 0.14213 0.06725 0.047417 0.10083 0.125 0.10083 0.23301 0 0.12118-0.05683 0.21329-0.17116 0.27652-0.11433 0.06059-0.29061 0.09088-0.52824 0.09088-0.18158 0-0.35186-0.02118-0.51102-0.06333-0.15916-0.04478-0.30138-0.097-0.42692-0.15759-0.14571-0.068491-0.25916-0.13203-0.33986-0.18998-0.07846-0.060589-0.14801-0.11576-0.20854-0.16581h-0.11066v1.1694c0.16589 0.08956 0.38557 0.17133 0.65907 0.24509 0.27349 0.07376 0.57807 0.1107 0.91433 0.1107 0.60751 0 1.0865-0.13941 1.4362-0.41864 0.34971-0.28187 0.5243-0.65205 0.5243-1.1104 0-0.31348-0.07627-0.57455-0.22871-0.78266-0.15244-0.21074-0.38746-0.36468-0.70579-0.46215-0.14347-0.042149-0.28738-0.076626-0.43085-0.10297-0.14123-0.028977-0.27313-0.057555-0.39642-0.086532-0.22417-0.05532-0.36688-0.11098-0.42741-0.1663-0.06053-0.05532-0.0905-0.13537-0.0905-0.24074 0-0.11591 0.06595-0.20556 0.19821-0.26878 0.1345-0.063223 0.29927-0.09475 0.4943-0.09475 0.23538 0 0.4673 0.046058 0.69595 0.13826 0.2309 0.089566 0.43644 0.20656 0.61578 0.35145h0.10427v-1.122c-0.14571-0.076394-0.34886-0.14781-0.6089-0.21367-0.2578-0.068491-0.52809-0.10248-0.81055-0.10248zm-6.631 0.12231v2.8884c0 0.55057 0.11224 0.9668 0.33642 1.2487 0.22642 0.28187 0.54803 0.42299 0.96499 0.42299 0.2578 0 0.47989-0.05147 0.66595-0.15421 0.18606-0.10537 0.39112-0.25808 0.61529-0.45828v0.49019h1.2104v-4.4378h-1.2104v3.1456c-0.11657 0.086932-0.23744 0.15245-0.36298 0.19724-0.12554 0.04478-0.24018 0.06719-0.3433 0.06719-0.15468 0-0.27555-0.02241-0.36298-0.06719-0.08519-0.044783-0.14922-0.11572-0.19182-0.21319-0.04484-0.097469-0.0741-0.21988-0.08755-0.3674-0.01121-0.15015-0.01672-0.33734-0.01672-0.56125v-2.201z" fill="#333" style="font-variant-caps:normal;font-variant-east-asian:normal;font-variant-ligatures:normal;font-variant-numeric:normal"/>
 </g>
</svg>
