<svg width="130" height="130" viewBox="0 0 130 130" fill="none" xmlns="http://www.w3.org/2000/svg">
<circle cx="65" cy="65" r="64.5" fill="#EAEAEA" stroke="#DEDFE0"/>
<g clip-path="url(#clip0)">
<path fill-rule="evenodd" clip-rule="evenodd" d="M64.9982 62.4952C71.1441 62.4952 76.1263 57.5366 76.1263 51.4199C76.1263 45.3033 71.1441 40.3447 64.9982 40.3447C58.8523 40.3447 53.87 45.3033 53.87 51.4199C53.87 57.5366 58.8523 62.4952 64.9982 62.4952ZM37.4307 84.4266C39.2627 73.6059 50.9079 65.2633 65.0003 65.2633C79.0927 65.2633 90.7379 73.6059 92.5699 84.4266C92.8465 86.0602 91.4775 87.4137 89.8207 87.4137H40.1799C38.5231 87.4137 37.1542 86.0602 37.4307 84.4266Z" fill="#454545"/>
</g>
<defs>
<clipPath id="clip0">
<rect width="53.7931" height="53.7931" fill="white" transform="translate(38.1035 38.1035)"/>
</clipPath>
</defs>
</svg>
