<svg id="Layer_1" data-name="Layer 1" xmlns="http://www.w3.org/2000/svg" xmlns:xlink="http://www.w3.org/1999/xlink" viewBox="0 0 24 24"><defs><style>.cls-1,.cls-2{fill:none;}.cls-2{opacity:0.31;}.cls-3{fill:#ffd580;}.cls-4{fill:#0a4f93;}.cls-5{clip-path:url(#clip-path);}.cls-6{fill:#fff;}.cls-7{fill:#d3d1d2;}.cls-8{fill:#f74d7a;}.cls-9{fill:#b52c5e;}.cls-10{clip-path:url(#clip-path-2);}</style><clipPath id="clip-path"><path class="cls-1" d="M12,0A11.94,11.94,0,1,1,0,11.94"/></clipPath><clipPath id="clip-path-2"><ellipse class="cls-2" cx="12.01" cy="11.95" rx="11.99" ry="11.94"/></clipPath></defs><ellipse class="cls-3" cx="11.99" cy="11.94" rx="11.99" ry="11.94"/><circle class="cls-4" cx="12.06" cy="12.09" r="7.7"/><g class="cls-5"><path class="cls-3" d="M18.4,13.29c.07,2.24-2.36,4.77-5.45,4.87s-5.67-2.28-5.74-4.53,0-4.07,5.46-4.24C17.9,9.23,18.33,11,18.4,13.29Z"/><rect class="cls-6" x="10.8" y="15.07" width="12.56" height="7.07" rx="0.43"/><rect class="cls-7" x="16.96" y="15.08" width="1.25" height="1.12"/><rect class="cls-8" x="11.34" y="15.68" width="5.92" height="6.71"/><rect class="cls-8" x="17.85" y="15.68" width="5.92" height="6.71"/><rect class="cls-9" x="16.95" y="15.54" width="1.26" height="6.97" rx="0.11"/><rect class="cls-9" x="20" y="16.67" width="3.15" height="1.23"/></g><g class="cls-10"><rect class="cls-8" x="18.78" y="2.3" width="5.65" height="3.84" rx="0.44"/><rect class="cls-8" x="0.18" y="7.74" width="3.18" height="2.16" rx="0.25"/></g><path class="cls-4" d="M19.48,13.3l1.06-.43a1,1,0,0,0,.58-.9l0-1a1,1,0,0,0-.65-.85l-1.09-.35Z"/><path class="cls-4" d="M4.93,9.78l-1.08.37a.91.91,0,0,0-.64.86l0,1a.93.93,0,0,0,.59.89l1.06.41Z"/><ellipse class="cls-4" cx="12.31" cy="2.57" rx="1.25" ry="1.24"/><rect class="cls-4" x="12.11" y="3.51" width="0.45" height="1.47"/></svg>