<svg id="Layer_1" data-name="Layer 1" xmlns="http://www.w3.org/2000/svg" xmlns:xlink="http://www.w3.org/1999/xlink" viewBox="0 0 24 24"><defs><style>.cls-1{fill:#2277db;}.cls-2{fill:#ffaf2c;}.cls-3{clip-path:url(#clip-path);}.cls-10,.cls-4{fill:none;}.cls-4{stroke:#ff6945;stroke-miterlimit:10;stroke-width:0.34px;}.cls-5{fill:#fff;}.cls-6{clip-path:url(#clip-path-2);}.cls-7{fill:#ff8d26;}.cls-8{fill:#ff6945;}.cls-9{fill:#494250;}.cls-10{stroke:#feaf2b;stroke-linecap:round;stroke-linejoin:round;stroke-width:1.46px;}</style><clipPath id="clip-path"><circle class="cls-1" cx="12" cy="12" r="12"/></clipPath><clipPath id="clip-path-2"><path class="cls-2" d="M11.75,13l1.61,8.41c.07.37.28.49.58.26l3.63-2.26,3.35-3c.32-.24.26-.38-.11-.53L12.45,12.4A.51.51,0,0,0,11.75,13Z"/></clipPath></defs><circle class="cls-1" cx="12" cy="12" r="12"/><g class="cls-3"><path class="cls-4" d="M-3.41,12.32A88.88,88.88,0,0,1,22.48-2.52c-.28,2.17-1.75,4-3.21,5.6-2.65,3-5.49,5.71-8.33,8.47l-13,12.7a147,147,0,0,0,17.33-13.1C19.47,7.44,23.52,3.46,28.33.53,24.52,11,12.28,17,9.44,27.82"/></g><circle class="cls-5" cx="11.99" cy="12.25" r="7.7"/><path class="cls-1" d="M17.75,12.34c.07,2.26-2.36,4.8-5.46,4.9S6.61,15,6.54,12.69s0-4.1,5.47-4.27C17.25,8.26,17.68,10.08,17.75,12.34Z"/><path class="cls-2" d="M11.75,13l1.61,8.41c.07.37.28.49.58.26l3.63-2.26,3.35-3c.32-.24.26-.38-.11-.53L12.45,12.4A.51.51,0,0,0,11.75,13Z"/><g class="cls-6"><path class="cls-7" d="M12.67,22l3.44-1.75a13.66,13.66,0,0,0,3-2.21l2.07-2.32L22,16.93l-.88,3.18L14.9,23.76l-2.38-1.18Z"/></g><circle class="cls-8" cx="14.73" cy="18.38" r="0.99"/><circle class="cls-8" cx="15.86" cy="15.25" r="0.99"/><circle class="cls-9" cx="17.75" cy="16.55" r="0.42"/><circle class="cls-9" cx="13.12" cy="15.16" r="0.42"/><path class="cls-10" d="M20.86,16.09a11.52,11.52,0,0,1-7.22,5.46"/><path class="cls-5" d="M19.33,14.17l1.09-.44a.94.94,0,0,0,.58-.9l0-1a1,1,0,0,0-.65-.86l-1.09-.34Z"/><path class="cls-5" d="M4.76,10.56l-1.08.37a.94.94,0,0,0-.64.86l0,1a.94.94,0,0,0,.59.9l1.06.42Z"/><circle class="cls-5" cx="11.77" cy="2.74" r="1.25"/><rect class="cls-5" x="11.57" y="3.84" width="0.45" height="1.47"/></svg>