<svg id="Layer_1" data-name="Layer 1" xmlns="http://www.w3.org/2000/svg" xmlns:xlink="http://www.w3.org/1999/xlink" viewBox="0 0 24 24"><defs><style>.cls-1{fill:#294347;}.cls-2{clip-path:url(#clip-path);}.cls-3{fill:none;stroke:#ff6945;stroke-miterlimit:10;stroke-width:0.34px;}.cls-4{fill:#fff;}</style><clipPath id="clip-path"><ellipse class="cls-1" cx="12" cy="12" rx="12" ry="12"/></clipPath></defs><ellipse class="cls-1" cx="12" cy="12" rx="12" ry="12"/><g class="cls-2"><path class="cls-3" d="M-3.42,12.32A88.85,88.85,0,0,1,22.49-2.52c-.29,2.17-1.75,4-3.22,5.6-2.65,3-5.49,5.71-8.33,8.47l-13,12.7a147.06,147.06,0,0,0,17.34-13.1C19.47,7.44,23.53,3.46,28.34.53,24.52,11,12.28,17,9.44,27.82"/></g><circle class="cls-4" cx="12.05" cy="12.51" r="7.7"/><path class="cls-1" d="M18,12.85c.07,2.26-2.37,4.8-5.46,4.9S6.8,15.46,6.73,13.2s0-4.1,5.48-4.27C17.44,8.77,17.88,10.59,18,12.85Z"/><path class="cls-4" d="M8,13.6v-.79l2.44-1v.82l-1.55.54,0,0v.09l0,0,1.55.53v.83Z"/><path class="cls-4" d="M13.18,11.06l-1.08,4h-.77l1.08-4Z"/><path class="cls-4" d="M16.49,13.6l-2.44,1v-.83l1.56-.53,0,0v-.09l0,0-1.56-.54v-.82l2.44,1Z"/><path class="cls-4" d="M19.48,14.43,20.53,14a1,1,0,0,0,.59-.91l-.05-1a.92.92,0,0,0-.65-.86l-1.08-.34Z"/><path class="cls-4" d="M4.67,10.9l-1.08.36a1,1,0,0,0-.64.87l0,1a1,1,0,0,0,.6.9l1.13.47Z"/><circle class="cls-4" cx="11.79" cy="2.98" r="1.25"/><rect class="cls-4" x="11.57" y="4.17" width="0.45" height="1.47"/></svg>