<svg id="Layer_1" data-name="Layer 1" xmlns="http://www.w3.org/2000/svg" xmlns:xlink="http://www.w3.org/1999/xlink" viewBox="0 0 24 24"><defs><style>.cls-1{fill:none;}.cls-2{fill:#ed5e4a;}.cls-3{fill:#fff;}.cls-4{clip-path:url(#clip-path);}.cls-5{fill:#294347;}.cls-6{fill:#1d3133;}.cls-7{fill:#f97158;}.cls-8{clip-path:url(#clip-path-2);}.cls-9{fill:#ffe36e;}</style><clipPath id="clip-path"><circle class="cls-1" cx="12" cy="12" r="12"/></clipPath><clipPath id="clip-path-2"><circle class="cls-1" cx="12" cy="12" r="12"/></clipPath></defs><circle class="cls-2" cx="12" cy="12" r="12"/><circle class="cls-3" cx="12.05" cy="12.29" r="7.7"/><g class="cls-4"><rect class="cls-5" x="11.14" y="17.64" width="13.25" height="8.98" rx="1.11"/><path class="cls-5" d="M19.23,18.43h-3a.76.76,0,0,1-.65-1l.14-.68a.71.71,0,0,1,.66-.59h2.74a.71.71,0,0,1,.66.59l.15.68A.77.77,0,0,1,19.23,18.43Z"/><circle class="cls-3" cx="17.7" cy="21.71" r="3.23"/><circle class="cls-6" cx="17.7" cy="21.71" r="2.81"/><circle class="cls-3" cx="17.7" cy="21.71" r="0.62"/><rect class="cls-3" x="21.41" y="18.24" width="2.14" height="1.02" rx="0.51"/><rect class="cls-7" x="17.14" y="16.89" width="1.19" height="0.81" rx="0.28"/></g><g class="cls-8"><ellipse class="cls-9" cx="23.4" cy="4.56" rx="3.59" ry="3.65"/><ellipse class="cls-9" cx="3.75" cy="17.8" rx="0.72" ry="0.73"/><ellipse class="cls-9" cx="6.07" cy="1.12" rx="2.09" ry="2.13"/></g><path class="cls-3" d="M19.3,13.72l1.06-.43a1,1,0,0,0,.58-.91l0-1a.94.94,0,0,0-.66-.85l-1.08-.35Z"/><path class="cls-3" d="M4.69,10.19l-1.08.36a1,1,0,0,0-.64.87l0,1a1,1,0,0,0,.59.9l1.06.41Z"/><circle class="cls-3" cx="12.14" cy="2.79" r="1.25"/><rect class="cls-3" x="11.95" y="3.82" width="0.45" height="1.47"/><path class="cls-2" d="M17.76,11.79c.07,2.26-2.36,4.8-5.46,4.9S6.62,14.4,6.55,12.14,6.55,8,12,7.87C17.26,7.71,17.69,9.53,17.76,11.79Z"/></svg>