<svg id="Layer_1" data-name="Layer 1" xmlns="http://www.w3.org/2000/svg" xmlns:xlink="http://www.w3.org/1999/xlink" viewBox="0 0 24 24"><defs><style>.cls-1{fill:none;}.cls-2{fill:#ed5e4a;}.cls-3{fill:#fff;}.cls-4{clip-path:url(#clip-path);}.cls-5{fill:#ffe36e;}</style><clipPath id="clip-path"><ellipse class="cls-1" cx="12.01" cy="12.03" rx="11.99" ry="11.97"/></clipPath></defs><ellipse class="cls-2" cx="12.01" cy="12.03" rx="11.99" ry="11.97"/><circle class="cls-3" cx="12.12" cy="12.39" r="7.7"/><ellipse class="cls-1" cx="11.99" cy="11.97" rx="11.99" ry="11.97"/><path class="cls-2" d="M18.43,13.61c.07,2.26-2.37,4.8-5.46,4.9S7.28,16.22,7.21,14s0-4.1,5.48-4.27C17.92,9.53,18.36,11.35,18.43,13.61Z"/><g class="cls-4"><rect class="cls-5" x="13.94" y="15.72" width="13.77" height="8.2" rx="0.37"/><circle class="cls-3" cx="20.69" cy="19.97" r="1.58"/><rect class="cls-5" x="-1.44" y="2.92" width="5.65" height="3.86" rx="0.44"/><rect class="cls-5" x="19.96" y="2.92" width="5.65" height="3.86" rx="0.44"/></g><path class="cls-3" d="M19.49,14.5l1.06-.44a.93.93,0,0,0,.58-.9l0-1a1,1,0,0,0-.65-.85L19.35,11Z"/><path class="cls-3" d="M4.94,11l-1.09.36a1,1,0,0,0-.63.87l0,1a.93.93,0,0,0,.6.89l1.06.42Z"/><circle class="cls-3" cx="12.53" cy="2.7" r="1.25"/><rect class="cls-3" x="12.25" y="3.68" width="0.45" height="1.47"/></svg>