<svg id="Layer_1" data-name="Layer 1" xmlns="http://www.w3.org/2000/svg" xmlns:xlink="http://www.w3.org/1999/xlink" viewBox="0 0 24 24"><defs><style>.cls-1,.cls-7,.cls-8{fill:none;}.cls-2{clip-path:url(#clip-path);}.cls-3{fill:#0a4f93;}.cls-4{fill:#a7f9e0;}.cls-5{fill:#fff;}.cls-6{fill:#ffaf2c;}.cls-7{stroke:#fff;stroke-width:0.24px;}.cls-7,.cls-8{stroke-miterlimit:10;}.cls-8{stroke:#0a4f93;stroke-width:0.4px;}</style><clipPath id="clip-path"><circle class="cls-1" cx="12" cy="12.02" r="12" transform="translate(-4.99 12.01) rotate(-45)"/></clipPath></defs><g class="cls-2"><circle class="cls-3" cx="12" cy="12.02" r="12" transform="translate(-4.99 12.01) rotate(-45)"/><circle class="cls-4" cx="11.94" cy="11.97" r="7.7"/><circle class="cls-1" cx="11.98" cy="11.97" r="12" transform="translate(-4.95 11.98) rotate(-45)"/><ellipse class="cls-5" cx="10.24" cy="2.41" rx="0.24" ry="0.24"/><ellipse class="cls-5" cx="20.57" cy="6.45" rx="0.24" ry="0.24"/><ellipse class="cls-5" cx="16.2" cy="3.63" rx="0.24" ry="0.24"/><ellipse class="cls-5" cx="22.08" cy="14.81" rx="0.24" ry="0.24"/><ellipse class="cls-5" cx="3.43" cy="13.95" rx="0.24" ry="0.24"/><ellipse class="cls-5" cx="1.69" cy="9.25" rx="0.24" ry="0.24"/><ellipse class="cls-5" cx="4.12" cy="8.61" rx="0.24" ry="0.24"/><ellipse class="cls-5" cx="7.7" cy="19.98" rx="0.24" ry="0.24"/><polygon class="cls-6" points="14.35 17.55 6.73 23.81 13.55 25.56 16.68 19.34 14.35 17.55"/><polygon class="cls-5" points="4.62 17.61 5.23 17.96 4.62 18.3 4.28 18.93 3.94 18.3 3.32 17.96 3.94 17.61 4.28 16.98 4.62 17.61"/><polygon class="cls-5" points="6.47 3.83 7.09 4.17 6.47 4.52 6.13 5.15 5.8 4.52 5.18 4.17 5.8 3.83 6.13 3.2 6.47 3.83"/><path class="cls-4" d="M19,12.8l1-.41a.88.88,0,0,0,.53-.85l0-.94a.88.88,0,0,0-.61-.8l-1-.33Z"/><path class="cls-4" d="M4.67,9.85l-1,.36a.86.86,0,0,0-.59.81L3,12a.87.87,0,0,0,.55.84l1,.4Z"/><ellipse class="cls-4" cx="12" cy="2.62" rx="1.16" ry="1.18"/><rect class="cls-4" x="11.81" y="3.51" width="0.42" height="1.39"/><path class="cls-3" d="M18.26,12c.07,2.26-2.36,4.8-5.46,4.9S7.12,14.56,7.05,12.3s0-4.1,5.47-4.27C17.76,7.87,18.19,9.69,18.26,12Z"/><path class="cls-5" d="M15.4,14.44l-1.4.23a2,2,0,0,0-1.38.81l-.75,1,1.54,1.2,2.19-2.9S15.35,14.45,15.4,14.44Z"/><path class="cls-5" d="M18.86,17.16,19,18.59a2.12,2.12,0,0,1-.42,1.56l-.74,1-1.53-1.2L18.5,17S18.87,17.2,18.86,17.16Z"/><path class="cls-5" d="M20.37,15.38a4.22,4.22,0,0,0,.1-3.92h0a4,4,0,0,0-3.7,1.1l-3.68,4.86,1.81,1.4,1.79,1.42Z"/><path class="cls-7" d="M18.57,12.4l.38-.09a.89.89,0,0,1,1.08.82l0,.4"/><path class="cls-8" d="M18.12,12.71s1.55-.22,1.68,1.17"/></g></svg>