<svg id="Layer_1" data-name="Layer 1" xmlns="http://www.w3.org/2000/svg" xmlns:xlink="http://www.w3.org/1999/xlink" viewBox="0 0 24 24"><defs><style>.cls-1,.cls-10,.cls-5{fill:none;}.cls-2{fill:#fff;}.cls-3{fill:#294347;}.cls-4{fill:#a7fce1;}.cls-5{stroke:#fff;stroke-width:0.32px;}.cls-5,.cls-9{stroke-miterlimit:10;}.cls-6{clip-path:url(#clip-path);}.cls-7{fill:#ffaf2c;}.cls-8{fill:#ff6945;}.cls-9{fill:#262626;}.cls-10,.cls-9{stroke:#262626;stroke-width:0.15px;}.cls-10{stroke-linecap:round;stroke-linejoin:round;}</style><clipPath id="clip-path"><ellipse class="cls-1" cx="12.01" cy="12.03" rx="11.99" ry="11.97"/></clipPath></defs><circle class="cls-2" cx="12.12" cy="12.07" r="7.22"/><path class="cls-3" d="M17.87,12.42c.07,2.26-2.36,4.8-5.46,4.9S6.73,15,6.66,12.77s0-4.1,5.47-4.27C17.37,8.34,17.8,10.16,17.87,12.42Z"/><path class="cls-2" d="M19.07,14l1.05-.43a.92.92,0,0,0,.58-.9l0-1A.92.92,0,0,0,20,10.8l-1.08-.35Z"/><path class="cls-2" d="M5.19,10.45l-1.08.36a.93.93,0,0,0-.64.87l0,1a1,1,0,0,0,.6.9L5.1,14Z"/><circle class="cls-2" cx="11.84" cy="2.78" r="1.25"/><rect class="cls-2" x="11.63" y="3.72" width="0.45" height="1.47"/><ellipse class="cls-4" cx="12.01" cy="12.03" rx="11.99" ry="11.97"/><ellipse class="cls-5" cx="11.93" cy="12.1" rx="10.25" ry="10.41"/><ellipse class="cls-5" cx="11.93" cy="12.1" rx="8.4" ry="8.53"/><ellipse class="cls-1" cx="11.99" cy="11.97" rx="11.99" ry="11.97"/><circle class="cls-3" cx="12.12" cy="12.29" r="7.7"/><path class="cls-3" d="M19.36,14.2l1.06-.43a1,1,0,0,0,.58-.91l0-1A1,1,0,0,0,20.3,11l-1.08-.34Z"/><path class="cls-3" d="M4.94,10.67,3.86,11a1,1,0,0,0-.64.87l0,1a1,1,0,0,0,.59.9l1.06.41Z"/><circle class="cls-3" cx="11.84" cy="2.99" r="1.25"/><rect class="cls-3" x="11.63" y="3.94" width="0.45" height="1.47"/><g class="cls-6"><path class="cls-4" d="M17.87,12.4c.07,2.26-2.36,4.8-5.46,4.9S6.72,15,6.65,12.75s0-4.1,5.48-4.27C17.36,8.32,17.8,10.14,17.87,12.4Z"/><path class="cls-7" d="M22.48,21.62a.56.56,0,0,0-.19-.43,1.31,1.31,0,0,0-1.06-.31,40.15,40.15,0,0,0-.35-5,.16.16,0,0,0-.28-.08l-1.38,1.5a4.53,4.53,0,0,0-2.15-.91h0a4.74,4.74,0,0,0-3.51.91l-1.23-1.4a.17.17,0,0,0-.27.05,16.9,16.9,0,0,0-.46,4.83h0a.51.51,0,0,0,0,.13,1.38,1.38,0,0,0-1.09.31.58.58,0,0,0-.18.43.55.55,0,0,0,.26.4,1.86,1.86,0,0,0,.46.19,1.2,1.2,0,0,0-.36.22.37.37,0,0,0-.08.39.42.42,0,0,0,.33.19,2.47,2.47,0,0,1,.38,0,.85.85,0,0,0-.29.17.35.35,0,0,0-.1.32.52.52,0,0,0,.28.22c.22.09.82.27,1.45.44a5.4,5.4,0,0,0,7.43,0c.65-.18,1.29-.37,1.52-.46a.46.46,0,0,0,.27-.22.32.32,0,0,0-.09-.32.85.85,0,0,0-.29-.17,2.32,2.32,0,0,1,.38,0,.42.42,0,0,0,.33-.19.37.37,0,0,0-.08-.39,1.2,1.2,0,0,0-.36-.22,1.86,1.86,0,0,0,.46-.19A.58.58,0,0,0,22.48,21.62Z"/><ellipse class="cls-8" cx="20.18" cy="21.61" rx="1.14" ry="1.16"/><ellipse class="cls-8" cx="13.62" cy="22.01" rx="1.14" ry="1.16"/></g><ellipse class="cls-9" cx="14.55" cy="20.56" rx="0.19" ry="0.42"/><ellipse class="cls-9" cx="18.94" cy="20.56" rx="0.42" ry="0.19" transform="translate(-2.38 38.64) rotate(-87.64)"/><polygon class="cls-9" points="16.16 21.19 17.62 21.19 16.87 21.73 16.16 21.19"/><polyline class="cls-10" points="16.87 21.73 16.87 22.18 16.53 22.62"/><line class="cls-10" x1="16.87" y1="22.18" x2="17.23" y2="22.59"/></svg>