<svg xmlns="http://www.w3.org/2000/svg" viewBox="0 0 365.8 365.8"><defs><style>.cls-1{fill:#fff;}</style></defs><g id="Layer_2" data-name="Layer 2"><g id="Layer_1-2" data-name="Layer 1"><circle cx="182.9" cy="182.9" r="182.9"/><path class="cls-1" d="M40.12,204.33H26.77l6.43-42.86h26l-1.84,12H44.71l-.55,3.92H56.77l-1.84,12H42.32Z"/><path class="cls-1" d="M74.89,161.47l-4.53,30.31H84.81l-1.9,12.55H55.05l6.43-42.86Z"/><path class="cls-1" d="M130.43,181.56a22.19,22.19,0,0,1-2,9.3,24.16,24.16,0,0,1-5.33,7.53,24.77,24.77,0,0,1-7.74,5,23.56,23.56,0,0,1-9.19,1.84,22.2,22.2,0,0,1-8.36-1.59,21.76,21.76,0,0,1-6.92-4.41,20.71,20.71,0,0,1-4.68-6.64,20.11,20.11,0,0,1-1.71-8.3,22.05,22.05,0,0,1,2-9.31,24.48,24.48,0,0,1,13.07-12.61,23.73,23.73,0,0,1,9.18-1.84,21.81,21.81,0,0,1,8.36,1.63,22.19,22.19,0,0,1,6.92,4.44,20.6,20.6,0,0,1,4.68,6.64A20,20,0,0,1,130.43,181.56Zm-23.7,10.71a9.3,9.3,0,0,0,3.86-.83,10.22,10.22,0,0,0,3.18-2.2,10.5,10.5,0,0,0,2.15-3.22,9.58,9.58,0,0,0,.79-3.85,8.8,8.8,0,0,0-.64-3.4,8.3,8.3,0,0,0-1.81-2.73,8.68,8.68,0,0,0-2.72-1.83,8.46,8.46,0,0,0-3.4-.68,9.27,9.27,0,0,0-3.89.83,10.22,10.22,0,0,0-3.15,2.24A10.48,10.48,0,0,0,99,179.84a10,10,0,0,0-.77,3.86,9,9,0,0,0,.64,3.4,8,8,0,0,0,1.78,2.69,8.49,8.49,0,0,0,6.09,2.48Z"/><path class="cls-1" d="M137.16,204.33l-8.38-42.86h13.53l3.49,23.64,10.28-23.64H167.9L171,185.11l10.66-23.64h14l-21.25,42.86H162.51l-3.12-24.12L149,204.33Z"/><path class="cls-1" d="M217.31,203.48a16.9,16.9,0,0,1-4.25,1.4,20.49,20.49,0,0,1-3.65.37,20.87,20.87,0,0,1-8.26-1.59,19.2,19.2,0,0,1-6.43-4.41,20.06,20.06,0,0,1-4.19-6.64,22.38,22.38,0,0,1-1.5-8.24,23.9,23.9,0,0,1,1.77-9.15,23.55,23.55,0,0,1,4.93-7.56,23.81,23.81,0,0,1,7.47-5.18,23.5,23.5,0,0,1,15.06-1.22,18.72,18.72,0,0,1,5.12,2.11l-2.15,13.78a10.5,10.5,0,0,0-3.55-2.57,11.59,11.59,0,0,0-4.71-.86,11.09,11.09,0,0,0-4.17.76,9.64,9.64,0,0,0-3.24,2.12,9.19,9.19,0,0,0-2.08,3.18,10.43,10.43,0,0,0-.74,3.92,8.56,8.56,0,0,0,.67,3.49,7.88,7.88,0,0,0,1.87,2.63,8.1,8.1,0,0,0,2.88,1.69,11.29,11.29,0,0,0,3.64.58,12.71,12.71,0,0,0,4.07-.65,14.91,14.91,0,0,0,3.59-1.74Z"/><path class="cls-1" d="M267.52,181.56a22,22,0,0,1-2,9.3,24.13,24.13,0,0,1-5.32,7.53,24.93,24.93,0,0,1-7.75,5,23.55,23.55,0,0,1-9.18,1.84,22.16,22.16,0,0,1-8.36-1.59,21.65,21.65,0,0,1-6.92-4.41,20.89,20.89,0,0,1-4.69-6.64,20.11,20.11,0,0,1-1.71-8.3,22.05,22.05,0,0,1,2-9.31,24.57,24.57,0,0,1,13.07-12.61,23.75,23.75,0,0,1,9.19-1.84,21.76,21.76,0,0,1,8.35,1.63,22.07,22.07,0,0,1,6.92,4.44,20.78,20.78,0,0,1,4.69,6.64A20.11,20.11,0,0,1,267.52,181.56Zm-23.69,10.71a9.29,9.29,0,0,0,3.85-.83,10.27,10.27,0,0,0,3.19-2.2A10.48,10.48,0,0,0,253,186a9.59,9.59,0,0,0,.8-3.85,8.8,8.8,0,0,0-.65-3.4,8.43,8.43,0,0,0-1.8-2.73,8.85,8.85,0,0,0-2.73-1.83,8.46,8.46,0,0,0-3.4-.68,9.23,9.23,0,0,0-3.88.83,10.15,10.15,0,0,0-3.16,2.24,10.48,10.48,0,0,0-2.11,3.24,10,10,0,0,0-.76,3.86,8.83,8.83,0,0,0,.64,3.4,8.18,8.18,0,0,0,1.77,2.69,8.6,8.6,0,0,0,2.7,1.81A8.46,8.46,0,0,0,243.83,192.27Z"/><path class="cls-1" d="M272.54,161.47H287a20.71,20.71,0,0,1,8,1.53,19.9,19.9,0,0,1,6.43,4.2,19.44,19.44,0,0,1,5.85,14,20.55,20.55,0,0,1-2.08,9.24,23.94,23.94,0,0,1-5.54,7.32,26.25,26.25,0,0,1-7.9,4.84,24.71,24.71,0,0,1-9.09,1.74H266.11Zm21.07,20.21a8,8,0,0,0-.56-2.94,7.37,7.37,0,0,0-7-4.78h-2.14l-2.69,17.88h2.08a9.73,9.73,0,0,0,3.83-.79,11,11,0,0,0,3.3-2.18,10.55,10.55,0,0,0,2.3-3.24A9.39,9.39,0,0,0,293.61,181.68Z"/><path class="cls-1" d="M312.28,161.47H339l-1.84,12H323.79l-.49,3.62h13.41l-1.78,11.51h-13.4l-.56,3.73h13.54l-1.78,12H305.85Z"/></g></g></svg>